<?xml version="1.0" encoding="UTF-8"?>
<svg version="1.1" xmlns="http://www.w3.org/2000/svg" width="310" height="310">
<path d="M0 0 C44.88 0 89.76 0 136 0 C136 0.66 136 1.32 136 2 C138.1462026 1.85970581 140.29196218 1.71261836 142.4375 1.5625 C143.63246094 1.48128906 144.82742187 1.40007813 146.05859375 1.31640625 C148.88570244 1.32343886 148.88570244 1.32343886 150 0 C151.83025637 -0.10301214 153.66451987 -0.13521691 155.49766541 -0.14044189 C156.69095963 -0.14615204 157.88425385 -0.15186218 159.1137085 -0.15774536 C160.44812001 -0.15899084 161.78253165 -0.16011591 163.11694336 -0.16113281 C164.51284416 -0.16575864 165.90874369 -0.17078298 167.30464172 -0.17617798 C171.10624795 -0.18932569 174.9078365 -0.19575141 178.70946193 -0.20018864 C181.08192545 -0.20311523 183.45438409 -0.20721921 185.82684517 -0.21169281 C193.24214848 -0.22537329 200.65744069 -0.23503754 208.07275575 -0.2388947 C216.64692195 -0.24337856 225.22092897 -0.26093922 233.79504675 -0.2898953 C240.41330576 -0.31147418 247.03151987 -0.32159693 253.64981371 -0.32293582 C257.60703264 -0.32398648 261.56410206 -0.3299494 265.5212841 -0.34775543 C269.24196033 -0.36417108 272.96237363 -0.36642365 276.68307304 -0.35761642 C278.70565568 -0.35647246 280.72822934 -0.37023956 282.75076294 -0.3843689 C283.94687698 -0.37879974 285.14299103 -0.37323059 286.37535095 -0.36749268 C287.94137259 -0.36969252 287.94137259 -0.36969252 289.53903103 -0.3719368 C290.35115079 -0.24919765 291.16327055 -0.12645851 292 0 C292.66 0.99 293.32 1.98 294 3 C295.98 3.495 295.98 3.495 298 4 C298 51.19 298 98.38 298 147 C297.01 147 296.02 147 295 147 C295 150.96 295 154.92 295 159 C295.99 159.33 296.98 159.66 298 160 C298 207.19 298 254.38 298 303 C296.68 303.66 295.36 304.32 294 305 C293.67 306.65 293.34 308.3 293 310 C245.48 310 197.96 310 149 310 C149 308.68 149 307.36 149 306 C144.71 306 140.42 306 136 306 C136 307.32 136 308.64 136 310 C88.48 310 40.96 310 -8 310 C-8.33 308.35 -8.66 306.7 -9 305 C-9.99 304.34 -10.98 303.68 -12 303 C-12.36914349 300.52062035 -12.36914349 300.52062035 -12.36076355 297.33065796 C-12.36488754 296.1246846 -12.36901154 294.91871124 -12.3732605 293.67619324 C-12.3626424 292.33279197 -12.35173796 290.98939295 -12.34057617 289.64599609 C-12.33973031 288.23685219 -12.34020424 286.82770697 -12.34190369 285.41856384 C-12.34276667 281.58604479 -12.3250922 277.75380572 -12.30418181 273.92135191 C-12.2854653 269.91882453 -12.28366855 265.91629119 -12.28010559 261.91372681 C-12.2707703 254.33117271 -12.24613654 246.74874791 -12.21605712 239.16625082 C-12.18255918 230.5351898 -12.16603871 221.90412269 -12.15097082 213.27301288 C-12.11958821 195.51526853 -12.06679899 177.75764465 -12 160 C-11.34 160 -10.68 160 -10 160 C-10 155.71 -10 151.42 -10 147 C-10.66 147 -11.32 147 -12 147 C-12 100.8 -12 54.6 -12 7 C-10.35 7 -8.7 7 -7 7 C-7.33 7.99 -7.66 8.98 -8 10 C-8.99 10 -9.98 10 -11 10 C-10.67 46.3 -10.34 82.6 -10 120 C-7.26061666 117.26061666 -6.83582818 114.14271807 -5.875 110.5 C0.59119626 87.4177286 12.6714335 66.78539673 28.95703125 49.25390625 C30.37429377 47.6903107 31.73353387 46.07291418 33.04296875 44.41796875 C50.18416118 23.23952939 79.72049316 10.80560211 105 3 C101.54838144 1.27419072 97.56311478 1.86216179 93.7644043 1.87060547 C92.80654022 1.86885315 91.84867615 1.86710083 90.86178589 1.86529541 C87.68257862 1.86087991 84.50342662 1.86381454 81.32421875 1.8671875 C79.11945078 1.86651421 76.91468288 1.86554397 74.70991516 1.86428833 C70.08207495 1.86281163 65.454254 1.86496441 60.82641602 1.86962891 C54.894603 1.87531617 48.96283532 1.87205337 43.03102398 1.86605644 C38.47485513 1.86244155 33.91869702 1.86359387 29.36252785 1.86618423 C27.17565722 1.86685145 24.98878561 1.86603224 22.80191612 1.86370468 C19.74251099 1.86116409 16.68317899 1.86503914 13.6237793 1.87060547 C12.71917465 1.86858124 11.81457001 1.86655701 10.8825531 1.86447144 C6.79073641 1.87825688 2.99068392 1.96599715 -1 3 C-0.67 2.01 -0.34 1.02 0 0 Z M109 1 C109 1.33 109 1.66 109 2 C110.65 2 112.3 2 114 2 C114 1.67 114 1.34 114 1 C112.35 1 110.7 1 109 1 Z M171 1 C171 1.33 171 1.66 171 2 C172.13953125 2.268125 173.2790625 2.53625 174.453125 2.8125 C204.01069362 10.02112399 228.85155458 23.11390121 251 44 C251.67417969 44.62132812 252.34835937 45.24265625 253.04296875 45.8828125 C275.54537641 67.3521755 289.12565876 97.8450483 295 128 C295.33 128 295.66 128 296 128 C296.04669503 112.40576628 296.08197657 96.81155139 296.10362434 81.21726513 C296.11394239 73.97676953 296.12801277 66.73631735 296.15087891 59.49584961 C296.17079666 53.18597282 296.1837126 46.87612746 296.18817699 40.5662201 C296.19078712 37.2243408 296.19693293 33.88255143 296.21146011 30.54070091 C296.22590828 26.81247933 296.22798073 23.08444609 296.22705078 19.35620117 C296.23783661 17.68924698 296.23783661 17.68924698 296.24884033 15.98861694 C296.246091 14.97479446 296.24334167 13.96097198 296.24050903 12.91642761 C296.24327441 11.59319378 296.24327441 11.59319378 296.24609566 10.24322796 C296.1430988 7.7156048 296.1430988 7.7156048 294 5 C293.34 5 292.68 5 292 5 C291.01 3.02 291.01 3.02 290 1 C250.73 1 211.46 1 171 1 Z M105 13 C104.24831543 13.19835449 103.49663086 13.39670898 102.72216797 13.60107422 C66.59924626 23.42294586 35.15248155 49.26546351 16.39453125 81.37890625 C-1.11726094 112.55378127 -7.6780657 151.03413161 1 186 C1.18804199 186.77537109 1.37608398 187.55074219 1.56982422 188.34960938 C8.00394926 214.00421136 20.57134639 236.15752932 39 255 C39.73734375 255.78761719 40.4746875 256.57523438 41.234375 257.38671875 C66.52923517 283.83554152 103.0224364 297.65812627 139.16796875 299.12890625 C178.21359032 299.80288131 215.29492716 285.1698085 243.59277344 258.3840332 C271.07410625 231.70525896 287.6344887 195.21879015 288.24169922 156.72241211 C288.31939626 132.99510714 283.96009208 110.20239475 273 89 C272.47792969 87.948125 271.95585937 86.89625 271.41796875 85.8125 C253.90942756 51.69749703 222.78295369 26.36256194 186.4375 14.625 C183.30756195 13.68304131 180.16440574 12.81820446 177 12 C176.32308105 11.82210938 175.64616211 11.64421875 174.94873047 11.4609375 C153.05091432 6.02825262 126.60848629 7.0690719 105 13 Z M-11 123 C-11 127.29 -11 131.58 -11 136 C-10.67 136 -10.34 136 -10 136 C-9.67 132.04 -9.34 128.08 -9 124 C-9.66 123.67 -10.32 123.34 -11 123 Z M-11 171 C-11 174.96 -11 178.92 -11 183 C-10.67 183 -10.34 183 -10 183 C-10 179.04 -10 175.08 -10 171 C-10.33 171 -10.66 171 -11 171 Z M295 177 C294.87995605 177.58265625 294.75991211 178.1653125 294.63623047 178.765625 C286.05720441 219.82873373 265.5509535 256.96652486 229.93408203 280.75048828 C209.42250681 294.00197048 186.40601441 303.37374984 162 306 C162 306.33 162 306.66 162 307 C178.63725616 307.11672871 195.27437978 307.20493655 211.9119463 307.25906086 C219.63683054 307.28485816 227.36146056 307.32003733 235.08618164 307.37719727 C241.81796153 307.42698614 248.54955736 307.45927993 255.28151625 307.47044247 C258.84715315 307.47696909 262.41226339 307.49233869 265.9777317 307.52865028 C269.95506388 307.56882897 273.93187776 307.56995232 277.90942383 307.56762695 C279.09553253 307.58560333 280.28164124 307.60357971 281.50369263 307.62210083 C283.12539619 307.61179085 283.12539619 307.61179085 284.77986145 307.60127258 C285.72101209 307.60588155 286.66216272 307.61049051 287.63183308 307.61523914 C290.22890914 307.21443267 290.22890914 307.21443267 291.63875866 304.64992046 C292.0879683 303.77544671 292.53717794 302.90097296 293 302 C293.54943425 301.50484233 294.0988685 301.00968466 294.66495228 300.49952221 C296.57289418 298.35652671 296.36951119 296.84479521 296.36076355 294.00764465 C296.36488754 292.97699387 296.36901154 291.94634308 296.3732605 290.88446045 C296.36247467 289.75445618 296.35168884 288.6244519 296.34057617 287.46020508 C296.34101425 286.26983139 296.34145233 285.0794577 296.34190369 283.85301208 C296.34017059 280.58867717 296.32511547 277.32472704 296.30418181 274.06046891 C296.28544 270.64919087 296.28366655 267.23790544 296.28010559 263.82658386 C296.27077775 257.36673828 296.24615409 250.90704484 296.21605712 244.44726628 C296.182536 237.0930655 296.16603288 229.73885748 296.15097082 222.38459933 C296.1196051 207.25631475 296.06683035 192.12817258 296 177 C295.67 177 295.34 177 295 177 Z M-11 187 C-11.11684014 201.77729833 -11.2049913 216.55453546 -11.25906086 231.33220196 C-11.28483453 238.19387446 -11.31996832 245.05525984 -11.37719727 251.91674805 C-11.43238596 258.53678051 -11.46141107 265.15659281 -11.47438622 271.77686501 C-11.48363443 274.30429598 -11.50169379 276.83171037 -11.52865028 279.35901451 C-11.56487572 282.89554693 -11.56994779 286.4308416 -11.56762695 289.9675293 C-11.58560333 291.01553711 -11.60357971 292.06354492 -11.62210083 293.14331055 C-11.60298215 299.10856738 -11.60298215 299.10856738 -8.52702332 304.12702942 C-7.69310562 304.74510971 -6.85918793 305.36319 -6 306 C-5.67 306.33 -5.34 306.66 -5 307 C-3.3424238 307.09611419 -1.68073014 307.12187755 -0.02037048 307.12025452 C1.59720909 307.12231651 1.59720909 307.12231651 3.24746704 307.12442017 C4.4407663 307.12082489 5.63406555 307.11722961 6.86352539 307.11352539 C8.11212845 307.11367142 9.36073151 307.11381744 10.64717102 307.1139679 C14.08090994 307.11338891 17.51458938 307.10835955 20.94831777 307.10139394 C24.53312459 307.09515998 28.11793213 307.09455657 31.70274353 307.09336853 C38.49550045 307.09025534 45.28824135 307.08204212 52.08099121 307.07201904 C59.81242494 307.06085753 67.54385942 307.05534736 75.27529919 307.05032361 C91.18354208 307.03985949 107.09176898 307.02226029 123 307 C123 306.67 123 306.34 123 306 C121.741875 305.76925781 120.48375 305.53851563 119.1875 305.30078125 C89.66661184 299.74169062 65.40355411 288.94730615 42 270 C41.30261719 269.44570313 40.60523438 268.89140625 39.88671875 268.3203125 C35.40141539 264.6405736 31.72847437 260.42897562 28 256 C27.24847656 255.15953125 26.49695312 254.3190625 25.72265625 253.453125 C8.82345653 234.12449846 -0.81826287 211.37098011 -8 187 C-8.99 187 -9.98 187 -11 187 Z " fill="#D2AA0B" transform="translate(12,0)"/>
<path d="M0 0 C1.60293085 0.04234573 3.20571762 0.09037064 4.80834961 0.14282227 C6.07140175 0.17823875 6.07140175 0.17823875 7.35997009 0.21437073 C10.06037467 0.29119796 12.76050607 0.37513964 15.46069336 0.45922852 C17.28685168 0.51243015 19.1130235 0.56517066 20.93920898 0.61743164 C25.42571145 0.74683873 29.91198137 0.8826285 34.39819336 1.02172852 C41.76510451 15.62943831 48.97547394 30.29994216 55.99633789 45.0769043 C58.43017119 50.18956491 60.88359002 55.292812 63.33569336 60.39672852 C64.34482952 62.49828065 65.35394405 64.59984318 66.36303711 66.70141602 C66.86432129 67.74523437 67.36560547 68.78905273 67.88208008 69.86450195 C69.38905703 73.00270258 70.89565927 76.14108277 72.40209961 79.27954102 C72.89742188 80.31135498 73.39274414 81.34316895 73.90307617 82.40625 C74.89377725 84.47064198 75.88401741 86.53525522 76.8737793 88.60009766 C79.49930611 94.07571431 82.13508237 99.54610778 84.78491211 105.01000977 C85.33727539 106.15211914 85.88963867 107.29422852 86.45874023 108.47094727 C87.52078716 110.66643922 88.58576066 112.86051856 89.65405273 115.05297852 C90.13036133 116.03911133 90.60666992 117.02524414 91.09741211 118.04125977 C91.51853271 118.90855713 91.93965332 119.77585449 92.37353516 120.66943359 C94.73200507 126.08374326 94.73200507 126.08374326 93.35009766 129.96679688 C92.81296143 131.08707275 92.2758252 132.20734863 91.72241211 133.36157227 C91.43719193 133.96554337 91.15197174 134.56951447 90.85810852 135.19178772 C89.94491662 137.11970645 89.01586021 139.03945077 88.08569336 140.95922852 C87.1698426 142.87699445 86.25727732 144.79629344 85.34541321 146.71595764 C84.51375098 148.46226953 83.67431189 150.20487148 82.83447266 151.94726562 C81.59014017 154.61085206 80.45538084 157.27955863 79.39819336 160.02172852 C78.73819336 160.02172852 78.07819336 160.02172852 77.39819336 160.02172852 C51.82190395 107.63190814 51.82190395 107.63190814 39.86541748 81.75482178 C36.4323071 74.32917393 32.9400905 66.94859645 29.23144531 59.65673828 C25.10690949 51.53251864 21.27048504 43.26827561 17.39819336 35.02172852 C15.64931896 37.64504011 14.46139316 39.98619648 13.21850586 42.86254883 C12.79045654 43.84918518 12.36240723 44.83582153 11.92138672 45.85235596 C11.45998291 46.92403015 10.9985791 47.99570435 10.52319336 49.09985352 C10.03923096 50.21745056 9.55526855 51.33504761 9.05664062 52.48651123 C7.50106422 56.08039685 5.94954039 59.67601549 4.39819336 63.27172852 C3.38414434 65.61689905 2.36982421 67.96195238 1.35522461 70.30688477 C-0.64854591 74.93854311 -2.65095751 79.57078556 -4.65258789 84.20336914 C-8.9523605 94.15006258 -13.27761635 104.08562951 -17.60180664 114.02172852 C-29.15180664 114.02172852 -40.70180664 114.02172852 -52.60180664 114.02172852 C-51.1230375 109.58542109 -49.56170115 105.43128853 -47.72290039 101.15063477 C-47.29738892 100.15789299 -47.29738892 100.15789299 -46.86328125 99.14509583 C-45.92446278 96.95705382 -44.98196477 94.77061876 -44.03930664 92.58422852 C-43.37066524 91.02844595 -42.70212903 89.47261818 -42.03369141 87.91674805 C-36.72611707 75.57617383 -31.35496274 63.26346435 -25.97164917 50.95578003 C-20.14557777 37.63329983 -14.42734697 24.26792161 -8.80273438 10.85913086 C-8.5248558 10.19907043 -8.24697723 9.53901001 -7.9606781 8.85894775 C-7.21548971 7.08863452 -6.47300137 5.31718542 -5.73071289 3.5456543 C-4.1560202 0.0250719 -4.1560202 0.0250719 0 0 Z " fill="#D4AB03" transform="translate(89.601806640625,72.978271484375)"/>
<path d="M0 0 C5.21438043 -0.0988364 10.42821643 -0.17145206 15.64331055 -0.21972656 C17.41749569 -0.23984903 19.19161446 -0.2671503 20.96557617 -0.30175781 C23.51497767 -0.35024992 26.06350295 -0.37296153 28.61328125 -0.390625 C29.40712723 -0.41127014 30.20097321 -0.43191528 31.01887512 -0.45318604 C36.47795286 -0.45541322 36.47795286 -0.45541322 38.82666016 1.59350586 C40.32837925 4.67349859 41.80310507 7.74838227 43.16015625 10.89453125 C43.46196808 11.58161163 43.76377991 12.26869202 44.07473755 12.97659302 C44.73013476 14.46899804 45.38339461 15.96234312 46.03475952 17.45651245 C47.81000075 21.52606729 49.60363772 25.58747813 51.3984375 29.6484375 C51.77314682 30.49661545 52.14785614 31.3447934 52.53392029 32.21867371 C56.64848032 41.50609833 60.91222545 50.72324095 65.1875 59.9375 C70.39060138 71.16415271 75.58033325 82.39563636 80.65420532 93.681427 C81.47362835 95.50384866 82.29572993 97.32506522 83.11791992 99.14624023 C83.60494385 100.23364502 84.09196777 101.3210498 84.59375 102.44140625 C85.01333984 103.37670166 85.43292969 104.31199707 85.86523438 105.27563477 C87.05340914 108.12822561 88.02280842 111.06842527 89 114 C77.45 114 65.9 114 54 114 C52.123125 109.813125 50.24625 105.62625 48.3125 101.3125 C47.67965088 99.90081543 47.04680176 98.48913086 46.39477539 97.03466797 C43.16964793 89.84043712 39.94494898 82.6460146 36.72108459 75.45121765 C34.82546599 71.220939 32.92853177 66.99125181 31.03125 62.76171875 C29.0895571 58.43284961 27.15209068 54.10213656 25.21875 49.76953125 C24.39585304 47.92967868 23.5729377 46.08983434 22.75 44.25 C22.37907227 43.415896 22.00814453 42.58179199 21.62597656 41.72241211 C20.20809448 38.10882886 20.20809448 38.10882886 18 35 C15.36642884 40.67380795 12.73381296 46.34805782 10.10205078 52.02270508 C9.20810247 53.94990784 8.31390103 55.87699321 7.41943359 57.80395508 C6.12790137 60.5864367 4.8373041 63.36935039 3.546875 66.15234375 C3.15191833 67.00271713 2.75696167 67.85309052 2.35003662 68.72923279 C-0.1528154 74.12994075 -2.59925171 79.55313713 -5 85 C-8.97248605 80.08258029 -11.49925869 74.33799258 -14.26269531 68.69262695 C-14.92017879 67.35733719 -15.5855497 66.02590188 -16.25878906 64.69848633 C-17.23705389 62.76944946 -18.19108092 60.83002387 -19.140625 58.88671875 C-19.71329102 57.73389404 -20.28595703 56.58106934 -20.87597656 55.39331055 C-23.11200265 48.64297895 -20.52787827 43.29780816 -17.578125 37.265625 C-17.0653299 36.18761627 -17.0653299 36.18761627 -16.54217529 35.08782959 C-15.45362117 32.80419938 -14.35226164 30.5270405 -13.25 28.25 C-12.5251483 26.73740696 -11.80118225 25.22438916 -11.078125 23.7109375 C-10.02396907 21.5048248 -8.96918011 19.29904917 -7.91052246 17.09509277 C-5.19277267 11.43286866 -2.5609919 5.73500373 0 0 Z " fill="#D4AB02" transform="translate(184,73)"/>
<path d="M0 0 C44.88 0 89.76 0 136 0 C136 0.66 136 1.32 136 2 C138.1462026 1.85970581 140.29196218 1.71261836 142.4375 1.5625 C143.63246094 1.48128906 144.82742187 1.40007813 146.05859375 1.31640625 C148.88570244 1.32343886 148.88570244 1.32343886 150 0 C151.83025637 -0.10301214 153.66451987 -0.13521691 155.49766541 -0.14044189 C156.69095963 -0.14615204 157.88425385 -0.15186218 159.1137085 -0.15774536 C160.44812001 -0.15899084 161.78253165 -0.16011591 163.11694336 -0.16113281 C164.51284416 -0.16575864 165.90874369 -0.17078298 167.30464172 -0.17617798 C171.10624795 -0.18932569 174.9078365 -0.19575141 178.70946193 -0.20018864 C181.08192545 -0.20311523 183.45438409 -0.20721921 185.82684517 -0.21169281 C193.24214848 -0.22537329 200.65744069 -0.23503754 208.07275575 -0.2388947 C216.64692195 -0.24337856 225.22092897 -0.26093922 233.79504675 -0.2898953 C240.41330576 -0.31147418 247.03151987 -0.32159693 253.64981371 -0.32293582 C257.60703264 -0.32398648 261.56410206 -0.3299494 265.5212841 -0.34775543 C269.24196033 -0.36417108 272.96237363 -0.36642365 276.68307304 -0.35761642 C278.70565568 -0.35647246 280.72822934 -0.37023956 282.75076294 -0.3843689 C283.94687698 -0.37879974 285.14299103 -0.37323059 286.37535095 -0.36749268 C287.94137259 -0.36969252 287.94137259 -0.36969252 289.53903103 -0.3719368 C290.35115079 -0.24919765 291.16327055 -0.12645851 292 0 C292.66 0.99 293.32 1.98 294 3 C295.98 3.495 295.98 3.495 298 4 C298 51.19 298 98.38 298 147 C297.01 147 296.02 147 295 147 C295 150.96 295 154.92 295 159 C295.99 159.33 296.98 159.66 298 160 C298 207.19 298 254.38 298 303 C296.68 303.66 295.36 304.32 294 305 C293.67 306.65 293.34 308.3 293 310 C245.48 310 197.96 310 149 310 C149 308.68 149 307.36 149 306 C144.71 306 140.42 306 136 306 C136 307.32 136 308.64 136 310 C88.48 310 40.96 310 -8 310 C-8.33 308.35 -8.66 306.7 -9 305 C-9.99 304.34 -10.98 303.68 -12 303 C-12.36914349 300.53623772 -12.36914349 300.53623772 -12.36076355 297.36862183 C-12.36488754 296.17106262 -12.36901154 294.97350342 -12.3732605 293.73965454 C-12.36264241 292.40569845 -12.35173797 291.07174462 -12.34057617 289.73779297 C-12.33973031 288.33850116 -12.34020425 286.93920802 -12.34190369 285.53991699 C-12.34276666 281.73425577 -12.32509241 277.92887652 -12.30418181 274.123281 C-12.28546507 270.14878095 -12.28366853 266.17427488 -12.28010559 262.19973755 C-12.27077037 254.67030696 -12.24613671 247.14100659 -12.21605712 239.61163342 C-12.18255896 231.04103087 -12.16603866 222.47042219 -12.15097082 213.8997705 C-12.11958836 196.26643976 -12.06679928 178.63323034 -12 161 C-11.67 161 -11.34 161 -11 161 C-11 168.26 -11 175.52 -11 183 C-10.34 183.33 -9.68 183.66 -9 184 C-9.24273871 184.84344011 -9.24273871 184.84344011 -9.49038124 185.70391941 C-10.02670134 188.12030252 -10.1371542 190.26363954 -10.15390015 192.73728943 C-10.16250061 193.68636169 -10.17110107 194.63543396 -10.17996216 195.61326599 C-10.18422211 196.64766312 -10.18848206 197.68206024 -10.19287109 198.74780273 C-10.20104858 199.84250885 -10.20922607 200.93721497 -10.21765137 202.06509399 C-10.24246688 205.68792169 -10.25900832 209.31071041 -10.2734375 212.93359375 C-10.27876118 214.17036425 -10.28408485 215.40713474 -10.28956985 216.68138313 C-10.31352751 222.54879587 -10.33277466 228.41619254 -10.3455919 234.28364033 C-10.36066939 241.05070262 -10.39580032 247.81728396 -10.44759309 254.58416218 C-10.49096388 260.45104733 -10.50693689 266.31777059 -10.51332474 272.1848011 C-10.52005237 274.67872907 -10.53531332 277.17264899 -10.55921555 279.66647148 C-10.59072984 283.15232206 -10.59092426 286.63684791 -10.58349609 290.12280273 C-10.59990143 291.15517563 -10.61630676 292.18754852 -10.63320923 293.25120544 C-10.59429031 297.70473606 -10.43312333 300.29315959 -8.07266235 304.14533997 C-3.73180591 306.76548238 -0.23674267 306.65782619 4.74609375 306.55175781 C5.7243663 306.55088165 6.70263885 306.55000549 7.71055603 306.54910278 C10.95345151 306.54050948 14.19490077 306.49664789 17.4375 306.453125 C19.71499548 306.44123761 21.99250453 306.43173588 24.27001953 306.42449951 C30.28929603 306.39971098 36.30795856 306.34589774 42.32696533 306.28503418 C51.85561732 306.19414789 61.38467195 306.14928203 70.91360474 306.09809875 C74.35511189 306.07823976 77.79656335 306.05360645 81.23803711 306.02868652 C94.48329895 305.94483971 107.6852648 306.03958797 120.91162109 306.80743408 C126.15703265 307.08254381 130.05502915 307.04751949 135 305 C138.7265625 304.734375 138.7265625 304.734375 142.625 304.75 C144.56246094 304.74226562 144.56246094 304.74226562 146.5390625 304.734375 C150 305 150 305 151.82914734 306.01902771 C154.76468847 307.34555003 156.98220965 307.12079248 160.19458008 306.96118164 C162.13478279 306.88026527 162.13478279 306.88026527 164.11418152 306.79771423 C164.81627432 306.76487776 165.51836712 306.73204128 166.24173546 306.69820976 C182.33423956 305.96776202 198.40670333 305.95159632 214.51171875 306.12109375 C215.61487553 306.13245991 216.7180323 306.14382607 217.85461807 306.15553665 C224.64419028 306.22740786 231.43360713 306.30962211 238.22302246 306.39489746 C244.08417076 306.46697176 249.94540778 306.53094127 255.80664062 306.59570312 C267.2045246 306.72277977 278.60228713 306.85845463 290 307 C290.268125 306.195625 290.53625 305.39125 290.8125 304.5625 C291.204375 303.716875 291.59625 302.87125 292 302 C292.99 301.67 293.98 301.34 295 301 C295 261.73 295 222.46 295 182 C293.68 187.61 292.36 193.22 291 199 C284.51919949 218.00052877 275.6128108 238.73511326 261 253 C259.68 253 258.36 253 257 253 C257 253.66 257 254.32 257 255 C254.38626111 257.53906064 252.87110419 258.92256852 249.1875 259.25 C248.465625 259.1675 247.74375 259.085 247 259 C248.96182292 252.93558118 251.32920067 248.94346421 255.5 244.1875 C265.94992166 231.66679754 273.73493408 217.4225931 279 202 C279.22381348 201.35417969 279.44762695 200.70835937 279.67822266 200.04296875 C291.24773703 166.0683435 289.79011172 127.86490793 275.0625 95.0625 C274.06036268 93.03233034 273.03965222 91.01121638 272 89 C271.47792969 87.948125 270.95585937 86.89625 270.41796875 85.8125 C253.0901297 52.04959112 222.61216906 27.40615717 186.6875 15.75 C167.01128122 9.73277184 147.41849752 9.34024563 127 9 C127.33 8.34 127.66 7.68 128 7 C130.54941373 6.68758629 133.00361513 6.48696579 135.5625 6.375 C136.27341797 6.33632812 136.98433594 6.29765625 137.71679688 6.2578125 C139.47742425 6.16328217 141.23867728 6.08054183 143 6 C137.15712444 4.02833006 131.70397479 3.58723239 125.5625 3.375 C124.64017578 3.33632813 123.71785156 3.29765625 122.76757812 3.2578125 C120.51190857 3.16431324 118.25623084 3.0785609 116 3 C116 2.34 116 1.68 116 1 C114.98824707 1.1071936 114.98824707 1.1071936 113.95605469 1.21655273 C103.782692 2.15383148 93.65208382 2.11603775 83.44393921 2.07516479 C80.19023995 2.06226304 76.93658201 2.05585167 73.68286133 2.05102539 C66.78855544 2.03967604 59.89428425 2.02040262 53 2 C44.97807056 1.97636561 36.95616016 1.95601507 28.9342041 1.94406128 C25.73182574 1.93758958 22.52950713 1.92508897 19.32714844 1.91235352 C17.36783907 1.90872177 15.40852915 1.90536994 13.44921875 1.90234375 C12.11823402 1.89459427 12.11823402 1.89459427 10.76036072 1.88668823 C6.70472975 1.88634003 2.95658933 1.97657842 -1 3 C-0.67 2.01 -0.34 1.02 0 0 Z M171 1 C171 1.33 171 1.66 171 2 C172.13953125 2.268125 173.2790625 2.53625 174.453125 2.8125 C204.01069362 10.02112399 228.85155458 23.11390121 251 44 C251.67417969 44.62132812 252.34835937 45.24265625 253.04296875 45.8828125 C275.54537641 67.3521755 289.12565876 97.8450483 295 128 C295.33 128 295.66 128 296 128 C296.04669503 112.40576628 296.08197657 96.81155139 296.10362434 81.21726513 C296.11394239 73.97676953 296.12801277 66.73631735 296.15087891 59.49584961 C296.17079666 53.18597282 296.1837126 46.87612746 296.18817699 40.5662201 C296.19078712 37.2243408 296.19693293 33.88255143 296.21146011 30.54070091 C296.22590828 26.81247933 296.22798073 23.08444609 296.22705078 19.35620117 C296.23783661 17.68924698 296.23783661 17.68924698 296.24884033 15.98861694 C296.246091 14.97479446 296.24334167 13.96097198 296.24050903 12.91642761 C296.24327441 11.59319378 296.24327441 11.59319378 296.24609566 10.24322796 C296.1430988 7.7156048 296.1430988 7.7156048 294 5 C293.34 5 292.68 5 292 5 C291.01 3.02 291.01 3.02 290 1 C250.73 1 211.46 1 171 1 Z " fill="#D1AA0F" transform="translate(12,0)"/>
<path d="M0 0 C0 0.66 0 1.32 0 2 C0.60062256 1.99476318 1.20124512 1.98952637 1.82006836 1.98413086 C4.52586838 1.96341986 7.23165177 1.95035875 9.9375 1.9375 C10.88302734 1.92912109 11.82855469 1.92074219 12.80273438 1.91210938 C14.15141602 1.90727539 14.15141602 1.90727539 15.52734375 1.90234375 C16.77632446 1.89448853 16.77632446 1.89448853 18.05053711 1.88647461 C20 2 20 2 21 3 C23.32817964 3.36760731 25.6618385 3.70241581 28 4 C27.67 4.66 27.34 5.32 27 6 C24.4966352 6.26008985 22.07238169 6.42120408 19.5625 6.5 C14.2965085 6.38992942 14.2965085 6.38992942 10 9 C8.13085937 9.49902344 8.13085937 9.49902344 5.84375 9.859375 C4.99554688 10.00189697 4.14734375 10.14441895 3.2734375 10.29125977 C2.35820312 10.44264404 1.44296875 10.59402832 0.5 10.75 C-37.22741194 17.58295344 -70.02083937 38.91264136 -92.19335938 70.21020508 C-101.47862807 83.80520605 -107.61551936 98.18255214 -112.2890625 113.91967773 C-113.02118055 116.06197784 -113.94354872 118.00024834 -115 120 C-115.268125 118.865625 -115.53625 117.73125 -115.8125 116.5625 C-116.204375 115.386875 -116.59625 114.21125 -117 113 C-117.99 112.67 -118.98 112.34 -120 112 C-122.32476051 117.72887411 -123.30683927 122.54842705 -123.0078125 128.73828125 C-123 131 -123 131 -123.48828125 132.90234375 C-124.17494346 135.71713466 -124.0939403 138.35749241 -124.0625 141.25 C-124.04896484 142.86648437 -124.04896484 142.86648437 -124.03515625 144.515625 C-124.02355469 145.33546875 -124.01195313 146.1553125 -124 147 C-124.66 147.33 -125.32 147.66 -126 148 C-126 147.34 -126 146.68 -126 146 C-126.66 146 -127.32 146 -128 146 C-128 99.8 -128 53.6 -128 6 C-126.35 6 -124.7 6 -123 6 C-123.33 6.99 -123.66 7.98 -124 9 C-124.99 9 -125.98 9 -127 9 C-126.67 45.3 -126.34 81.6 -126 119 C-123.26061666 116.26061666 -122.83582818 113.14271807 -121.875 109.5 C-115.40880374 86.4177286 -103.3285665 65.78539673 -87.04296875 48.25390625 C-85.62570623 46.6903107 -84.26646613 45.07291418 -82.95703125 43.41796875 C-66.51934496 23.1087316 -26.83114773 0 0 0 Z M-127 122 C-127 126.29 -127 130.58 -127 135 C-126.67 135 -126.34 135 -126 135 C-125.67 131.04 -125.34 127.08 -125 123 C-125.66 122.67 -126.32 122.34 -127 122 Z " fill="#D2AB0B" transform="translate(128,1)"/>
<path d="M0 0 C44.88 0 89.76 0 136 0 C136 0.66 136 1.32 136 2 C138.1462026 1.85970581 140.29196218 1.71261836 142.4375 1.5625 C143.63246094 1.48128906 144.82742187 1.40007813 146.05859375 1.31640625 C148.88570244 1.32343886 148.88570244 1.32343886 150 0 C151.83025637 -0.10301214 153.66451987 -0.13521691 155.49766541 -0.14044189 C156.69095963 -0.14615204 157.88425385 -0.15186218 159.1137085 -0.15774536 C160.44812001 -0.15899084 161.78253165 -0.16011591 163.11694336 -0.16113281 C164.51284416 -0.16575864 165.90874369 -0.17078298 167.30464172 -0.17617798 C171.10624795 -0.18932569 174.9078365 -0.19575141 178.70946193 -0.20018864 C181.08192545 -0.20311523 183.45438409 -0.20721921 185.82684517 -0.21169281 C193.24214848 -0.22537329 200.65744069 -0.23503754 208.07275575 -0.2388947 C216.64692195 -0.24337856 225.22092897 -0.26093922 233.79504675 -0.2898953 C240.41330576 -0.31147418 247.03151987 -0.32159693 253.64981371 -0.32293582 C257.60703264 -0.32398648 261.56410206 -0.3299494 265.5212841 -0.34775543 C269.24196033 -0.36417108 272.96237363 -0.36642365 276.68307304 -0.35761642 C278.70565568 -0.35647246 280.72822934 -0.37023956 282.75076294 -0.3843689 C283.94687698 -0.37879974 285.14299103 -0.37323059 286.37535095 -0.36749268 C287.94137259 -0.36969252 287.94137259 -0.36969252 289.53903103 -0.3719368 C290.35115079 -0.24919765 291.16327055 -0.12645851 292 0 C292.66 0.99 293.32 1.98 294 3 C296.05925139 3.72382467 296.05925139 3.72382467 298 4 C298.0232986 17.75330399 298.04100359 31.50660318 298.05181217 45.25992298 C298.057003 51.6479799 298.06403057 58.03602319 298.07543945 64.42407227 C298.0864047 70.60327473 298.09230536 76.78246419 298.09487724 82.96167564 C298.09670716 85.30444226 298.10027974 87.64720826 298.10573006 89.98996925 C298.13631363 103.69673804 297.90334926 117.32095811 297 131 C296.67 131 296.34 131 296 131 C295.05856169 117.9275233 294.9183439 104.93707164 295.04709625 91.83467865 C295.08985073 87.21829881 295.11275283 82.60187808 295.13712692 77.98537064 C295.18258107 69.43163941 295.23647677 60.87813727 295.32226562 52.32470703 C295.38161022 46.33228905 295.41660367 40.34015739 295.43544769 34.34748077 C295.44717526 32.07484737 295.467965 29.80224159 295.49808502 27.52977753 C295.53905637 24.36422019 295.54897318 21.19996846 295.55175781 18.03417969 C295.57130524 17.10220261 295.59085266 16.17022552 295.61099243 15.21000671 C295.58570806 11.17747835 295.40174083 7.85359702 293.15504456 4.41543579 C288.52090421 0.86763535 284.65863913 1.20170477 278.9675293 1.31884766 C277.29857353 1.31753342 277.29857353 1.31753342 275.59590149 1.31619263 C271.92129106 1.32037001 268.24850996 1.36703404 264.57421875 1.4140625 C262.02546689 1.42525398 259.47670212 1.43379439 256.92793274 1.43978882 C250.90701871 1.46035028 244.8868889 1.50762724 238.86628896 1.56788576 C232.01028991 1.63501206 225.15425909 1.66795503 218.29801309 1.69805837 C204.1983018 1.76072942 190.09921179 1.86743804 176 2 C181.445 3.485 181.445 3.485 187 5 C187 5.66 187 6.32 187 7 C187.66 7 188.32 7 189 7 C189.33 7.99 189.66 8.98 190 10 C189.34 10 188.68 10 188 10 C188 10.66 188 11.32 188 12 C182.5484906 14.7257547 175.08233256 12.75298436 169.4375 11.5625 C155.53349297 8.8998656 141.11305316 9.23517424 127 9 C127.33 8.34 127.66 7.68 128 7 C130.54941373 6.68758629 133.00361513 6.48696579 135.5625 6.375 C136.27341797 6.33632812 136.98433594 6.29765625 137.71679688 6.2578125 C139.47742425 6.16328217 141.23867728 6.08054183 143 6 C137.15712444 4.02833006 131.70397479 3.58723239 125.5625 3.375 C124.64017578 3.33632813 123.71785156 3.29765625 122.76757812 3.2578125 C120.51190857 3.16431324 118.25623084 3.0785609 116 3 C116 2.34 116 1.68 116 1 C114.98824707 1.1071936 114.98824707 1.1071936 113.95605469 1.21655273 C103.782692 2.15383148 93.65208382 2.11603775 83.44393921 2.07516479 C80.19023995 2.06226304 76.93658201 2.05585167 73.68286133 2.05102539 C66.78855544 2.03967604 59.89428425 2.02040262 53 2 C44.97807056 1.97636561 36.95616016 1.95601507 28.9342041 1.94406128 C25.73182574 1.93758958 22.52950713 1.92508897 19.32714844 1.91235352 C17.36783907 1.90872177 15.40852915 1.90536994 13.44921875 1.90234375 C12.5618956 1.89717743 11.67457245 1.89201111 10.76036072 1.88668823 C6.70472975 1.88634003 2.95658933 1.97657842 -1 3 C-0.67 2.01 -0.34 1.02 0 0 Z " fill="#D3AA0C" transform="translate(12,0)"/>
<path d="M0 0 C0.33 0 0.66 0 1 0 C1 7.26 1 14.52 1 22 C1.66 22.33 2.32 22.66 3 23 C2.83817419 23.56229341 2.67634838 24.12458681 2.50961876 24.70391941 C1.97329866 27.12030252 1.8628458 29.26363954 1.84609985 31.73728943 C1.83749939 32.68636169 1.82889893 33.63543396 1.82003784 34.61326599 C1.81577789 35.64766312 1.81151794 36.68206024 1.80712891 37.74780273 C1.79895142 38.84250885 1.79077393 39.93721497 1.78234863 41.06509399 C1.75753312 44.68792169 1.74099168 48.31071041 1.7265625 51.93359375 C1.72123882 53.17036425 1.71591515 54.40713474 1.71043015 55.68138313 C1.68647249 61.54879587 1.66722534 67.41619254 1.6544081 73.28364033 C1.63933061 80.05070262 1.60419968 86.81728396 1.55240691 93.58416218 C1.50903612 99.45104733 1.49306311 105.31777059 1.48667526 111.1848011 C1.47994763 113.67872907 1.46468668 116.17264899 1.44078445 118.66647148 C1.40927016 122.15232206 1.40907574 125.63684791 1.41650391 129.12280273 C1.40009857 130.15517563 1.38369324 131.18754852 1.36679077 132.25120544 C1.40570969 136.70473606 1.56687667 139.29315959 3.92733765 143.14533997 C8.26819409 145.76548238 11.76325733 145.65782619 16.74609375 145.55175781 C18.21350258 145.55044357 18.21350258 145.55044357 19.71055603 145.54910278 C22.95345151 145.54050948 26.19490077 145.49664789 29.4375 145.453125 C31.71499548 145.44123761 33.99250453 145.43173588 36.27001953 145.42449951 C42.28929603 145.39971098 48.30795856 145.34589774 54.32696533 145.28503418 C63.85561732 145.19414789 73.38467195 145.14928203 82.91360474 145.09809875 C86.35511189 145.07823976 89.79656335 145.05360645 93.23803711 145.02868652 C106.48329895 144.94483971 119.6852648 145.03958797 132.91162109 145.80743408 C138.15703265 146.08254381 142.05502915 146.04751949 147 144 C150.7265625 143.734375 150.7265625 143.734375 154.625 143.75 C156.56246094 143.74226563 156.56246094 143.74226563 158.5390625 143.734375 C162 144 162 144 163.82914734 145.01902771 C166.76468847 146.34555003 168.98220965 146.12079248 172.19458008 145.96118164 C173.48804855 145.9072374 174.78151703 145.85329315 176.11418152 145.79771423 C176.81627432 145.76487776 177.51836712 145.73204128 178.24173546 145.69820976 C194.33423956 144.96776202 210.40670333 144.95159632 226.51171875 145.12109375 C227.61487553 145.13245991 228.7180323 145.14382607 229.85461807 145.15553665 C236.64419028 145.22740786 243.43360713 145.30962211 250.22302246 145.39489746 C256.08417076 145.46697176 261.94540778 145.53094127 267.80664062 145.59570312 C279.2045246 145.72277977 290.60228713 145.85845463 302 146 C302.268125 145.195625 302.53625 144.39125 302.8125 143.5625 C303.204375 142.716875 303.59625 141.87125 304 141 C304.99 140.67 305.98 140.34 307 140 C306.99777939 138.7732103 306.99555878 137.54642059 306.99327087 136.28245544 C306.97284128 124.61971847 306.95793361 112.9569852 306.94818783 101.29423428 C306.94300873 95.30088482 306.93600353 89.30755001 306.92456055 83.31420898 C306.91355227 77.51105166 306.90768591 71.70790826 306.90512276 65.90474129 C306.90330035 63.71041711 306.89974337 61.51609354 306.89426994 59.32177544 C306.85887842 44.52033038 307.2251344 29.78176227 308 15 C308.33 15 308.66 15 309 15 C310.02363393 41.48513035 310.1257179 67.94381192 310.06866455 94.44586182 C310.05822225 99.83109123 310.05382335 105.21632577 310.04882812 110.6015625 C310.03827329 121.06772122 310.02132986 131.53385805 310 142 C309.360625 142.226875 308.72125 142.45375 308.0625 142.6875 C307.381875 143.120625 306.70125 143.55375 306 144 C305.67 145.65 305.34 147.3 305 149 C257.48 149 209.96 149 161 149 C161 147.68 161 146.36 161 145 C156.71 145 152.42 145 148 145 C148 146.32 148 147.64 148 149 C100.48 149 52.96 149 4 149 C3.67 147.35 3.34 145.7 3 144 C2.01 143.34 1.02 142.68 0 142 C-0.36914349 139.53623772 -0.36914349 139.53623772 -0.36076355 136.36862183 C-0.36488754 135.17106262 -0.36901154 133.97350342 -0.3732605 132.73965454 C-0.36264241 131.40569845 -0.35173797 130.07174462 -0.34057617 128.73779297 C-0.33973031 127.33850116 -0.34020425 125.93920802 -0.34190369 124.53991699 C-0.34276666 120.73425577 -0.32509241 116.92887652 -0.30418181 113.123281 C-0.28546507 109.14878095 -0.28366853 105.17427488 -0.28010559 101.19973755 C-0.27077037 93.67030696 -0.24613671 86.14100659 -0.21605712 78.61163342 C-0.18255896 70.04103087 -0.16603866 61.47042219 -0.15097082 52.8997705 C-0.11958836 35.26643976 -0.06679928 17.63323034 0 0 Z " fill="#6E779C" transform="translate(0,161)"/>
<path d="M0 0 C0 0.66 0 1.32 0 2 C0.60062256 1.99476318 1.20124512 1.98952637 1.82006836 1.98413086 C4.52586838 1.96341986 7.23165177 1.95035875 9.9375 1.9375 C10.88302734 1.92912109 11.82855469 1.92074219 12.80273438 1.91210938 C14.15141602 1.90727539 14.15141602 1.90727539 15.52734375 1.90234375 C16.77632446 1.89448853 16.77632446 1.89448853 18.05053711 1.88647461 C20 2 20 2 21 3 C23.32817964 3.36760731 25.6618385 3.70241581 28 4 C27.67 4.66 27.34 5.32 27 6 C24.4966352 6.26008985 22.07238169 6.42120408 19.5625 6.5 C14.2965085 6.38992942 14.2965085 6.38992942 10 9 C8.13085938 9.49902344 8.13085938 9.49902344 5.84375 9.859375 C4.99514404 10.00213867 4.14653809 10.14490234 3.2722168 10.29199219 C2.35738525 10.44313477 1.44255371 10.59427734 0.5 10.75 C-14.74579073 13.48665788 -28.26802665 18.20406313 -41.9375 25.4609375 C-45 27 -45 27 -47 27 C-47 26.34 -47 25.68 -47 25 C-46.01 25 -45.02 25 -44 25 C-44 24.34 -44 23.68 -44 23 C-43.34 22.67 -42.68 22.34 -42 22 C-42.66 21.34 -43.32 20.68 -44 20 C-43.34 20 -42.68 20 -42 20 C-42.33 19.34 -42.66 18.68 -43 18 C-44.65 18 -46.3 18 -48 18 C-44.29044707 14.84834817 -40.10267223 13.06450054 -35.6875 11.125 C-34.892229 10.77421387 -34.09695801 10.42342773 -33.27758789 10.06201172 C-10.07019397 0 -10.07019397 0 0 0 Z " fill="#D3AA07" transform="translate(128,1)"/>
<path d="M0 0 C3.875 1.75 3.875 1.75 5 4 C5.203125 6.06640625 5.203125 6.06640625 5.25 8.5625 C5.28867187 9.77099609 5.28867187 9.77099609 5.328125 11.00390625 C5.0299805 13.72624948 4.47172703 15.51459128 3.50488281 18.03515625 C1.74379451 23.22153841 1.57568618 27.9944271 1.59375 33.43359375 C1.58291382 34.39274185 1.57207764 35.35188995 1.56091309 36.34010315 C1.51529841 40.40824843 1.50347405 44.47632207 1.48876953 48.54467773 C1.47315 51.52871793 1.44019805 54.51221518 1.40625 57.49609375 C1.40927124 58.41998398 1.41229248 59.34387421 1.41540527 60.29576111 C1.40023865 61.57333031 1.40023865 61.57333031 1.38476562 62.87670898 C1.38271118 63.62677719 1.38065674 64.3768454 1.37854004 65.14964294 C1 67 1 67 -2 69 C-5.65111665 62.45841601 -5.29887594 56.36120371 -5 49 C-5.33 49 -5.66 49 -6 49 C-6.02736707 47.60427948 -6.04655989 46.20839779 -6.0625 44.8125 C-6.07410156 44.03519531 -6.08570313 43.25789063 -6.09765625 42.45703125 C-6 40 -6 40 -5.49609375 37.54296875 C-4.95829516 34.78622164 -4.93697067 32.30480505 -5 29.5 C-5.08304097 25.80467692 -4.729694 22.61344467 -4 19 C-4.028509 17.60305899 -4.09073928 16.20637744 -4.1875 14.8125 C-4.28915129 9.32333009 -2.292908 4.90313808 0 0 Z " fill="#D3AA04" transform="translate(8,112)"/>
<path d="M0 0 C1.65 0 3.3 0 5 0 C4.67 0.99 4.34 1.98 4 3 C3.01 3 2.02 3 1 3 C1.33 39.3 1.66 75.6 2 113 C4.81111717 110.18888283 5.30104289 106.86218677 6.3125 103.125 C8.36669721 95.80745679 10.86087865 88.9327829 14 82 C15.1700097 85.91736581 14.69584017 88.97959015 14 93 C14.66 92.01 15.32 91.02 16 90 C17.485 89.505 17.485 89.505 19 89 C18.505 88.01 18.505 88.01 18 87 C20.475 86.01 20.475 86.01 23 85 C22.82041748 85.527146 22.64083496 86.05429199 22.45581055 86.59741211 C20.4474754 92.54983493 18.60172259 98.54099287 16.8125 104.5625 C16.53986328 105.47580078 16.26722656 106.38910156 15.98632812 107.33007812 C15.32294069 109.55300795 14.66085272 111.77631558 14 114 C13.67 114 13.34 114 13 114 C12.731875 112.865625 12.46375 111.73125 12.1875 110.5625 C11.795625 109.386875 11.40375 108.21125 11 107 C10.01 106.67 9.02 106.34 8 106 C5.67523949 111.72887411 4.69316073 116.54842705 4.9921875 122.73828125 C5 125 5 125 4.51171875 126.90234375 C3.82505654 129.71713466 3.9060597 132.35749241 3.9375 135.25 C3.95103516 136.86648437 3.95103516 136.86648437 3.96484375 138.515625 C3.97644531 139.33546875 3.98804688 140.1553125 4 141 C3.34 141.33 2.68 141.66 2 142 C2 141.34 2 140.68 2 140 C1.34 140 0.68 140 0 140 C0 93.8 0 47.6 0 0 Z M1 116 C1 120.29 1 124.58 1 129 C1.33 129 1.66 129 2 129 C2.33 125.04 2.66 121.08 3 117 C2.34 116.67 1.68 116.34 1 116 Z " fill="#D1AA12" transform="translate(0,7)"/>
<path d="M0 0 C0.33 0 0.66 0 1 0 C1 7.26 1 14.52 1 22 C1.66 22.33 2.32 22.66 3 23 C2.83817419 23.56229341 2.67634838 24.12458681 2.50961876 24.70391941 C1.97329866 27.12030252 1.8628458 29.26363954 1.84609985 31.73728943 C1.83749939 32.68636169 1.82889893 33.63543396 1.82003784 34.61326599 C1.81577789 35.64766312 1.81151794 36.68206024 1.80712891 37.74780273 C1.79895142 38.84250885 1.79077393 39.93721497 1.78234863 41.06509399 C1.75753312 44.68792169 1.74099168 48.31071041 1.7265625 51.93359375 C1.72123882 53.17036425 1.71591515 54.40713474 1.71043015 55.68138313 C1.68647249 61.54879587 1.66722534 67.41619254 1.6544081 73.28364033 C1.63933061 80.05070262 1.60419968 86.81728396 1.55240691 93.58416218 C1.50903612 99.45104733 1.49306311 105.31777059 1.48667526 111.1848011 C1.47994763 113.67872907 1.46468668 116.17264899 1.44078445 118.66647148 C1.40927016 122.15232206 1.40907574 125.63684791 1.41650391 129.12280273 C1.40009857 130.15517563 1.38369324 131.18754852 1.36679077 132.25120544 C1.40559984 136.69216532 1.57236113 139.295219 3.90849304 143.14533997 C8.33215947 145.79919048 11.97720024 145.6562923 17.04760742 145.55175781 C18.56079559 145.55044357 18.56079559 145.55044357 20.10455322 145.54910278 C23.43875963 145.54052411 26.77155208 145.49673785 30.10546875 145.453125 C32.42848148 145.44125196 34.75150741 145.43174449 37.07453918 145.42449951 C43.19479937 145.39973881 49.31445329 145.34586515 55.43444824 145.28503418 C64.03842293 145.20471736 72.64268506 145.16350705 81.24690247 145.11834717 C85.82687519 145.09423428 90.40655235 145.05907502 94.9863739 145.01495361 C97.09272217 144.99852361 99.19907082 144.98214327 101.30541992 144.96582031 C102.71244926 144.94864456 102.71244926 144.94864456 104.14790344 144.93112183 C110.16077993 144.89159163 116.03017197 145.28307316 122 146 C121.67 146.99 121.34 147.98 121 149 C82.39 149 43.78 149 4 149 C3.67 147.35 3.34 145.7 3 144 C2.01 143.34 1.02 142.68 0 142 C-0.36914349 139.53623772 -0.36914349 139.53623772 -0.36076355 136.36862183 C-0.36488754 135.17106262 -0.36901154 133.97350342 -0.3732605 132.73965454 C-0.36264241 131.40569845 -0.35173797 130.07174462 -0.34057617 128.73779297 C-0.33973031 127.33850116 -0.34020425 125.93920802 -0.34190369 124.53991699 C-0.34276666 120.73425577 -0.32509241 116.92887652 -0.30418181 113.123281 C-0.28546507 109.14878095 -0.28366853 105.17427488 -0.28010559 101.19973755 C-0.27077037 93.67030696 -0.24613671 86.14100659 -0.21605712 78.61163342 C-0.18255896 70.04103087 -0.16603866 61.47042219 -0.15097082 52.8997705 C-0.11958836 35.26643976 -0.06679928 17.63323034 0 0 Z " fill="#666E99" transform="translate(0,161)"/>
<path d="M0 0 C0.33 2.31 0.66 4.62 1 7 C1.66 7 2.32 7 3 7 C4.20460682 13.02303412 4.20313831 18.95292221 3 25 C2.34 25.33 1.68 25.66 1 26 C0.97314062 28.14576637 0.95366912 30.29162645 0.9375 32.4375 C0.92589844 33.63246094 0.91429687 34.82742187 0.90234375 36.05859375 C0.66098208 38.88873341 0.66098208 38.88873341 2 40 C3.24996459 54.32102289 3.24996459 54.32102289 -0.5 59.4375 C-1.7375 60.7059375 -1.7375 60.7059375 -3 62 C-3.99 61.67 -4.98 61.34 -6 61 C-6 56.71 -6 52.42 -6 48 C-5.34 48 -4.68 48 -4 48 C-4.11794522 42.89118974 -4.24217047 37.78258636 -4.37231445 32.67407227 C-4.41572573 30.93485712 -4.45739612 29.19559765 -4.49731445 27.45629883 C-4.55486768 24.96161512 -4.6186042 22.4671559 -4.68359375 19.97265625 C-4.70030624 19.19036148 -4.71701874 18.40806671 -4.73423767 17.60206604 C-4.50648731 14.00128219 -4.50648731 14.00128219 -6 11 C-6.50993831 5.73063742 -6.50993831 5.73063742 -6 3 C-2.34375 0 -2.34375 0 0 0 Z " fill="#D4A804" transform="translate(305,121)"/>
<path d="M0 0 C0.33 0 0.66 0 1 0 C1.33 3.96 1.66 7.92 2 12 C1.01 12 0.02 12 -1 12 C-1 15.96 -1 19.92 -1 24 C-0.01 24.33 0.98 24.66 2 25 C1.88525534 27.54250021 1.7585303 30.08347338 1.625 32.625 C1.57859375 33.69427734 1.57859375 33.69427734 1.53125 34.78515625 C1.28781902 39.2074857 0.51433459 42.80437046 -1 47 C-1.74848143 49.88179367 -2.40365213 52.78406015 -3.0625 55.6875 C-4.88006757 63.6402027 -4.88006757 63.6402027 -6 67 C-7.485 67.495 -7.485 67.495 -9 68 C-9 68.66 -9 69.32 -9 70 C-9.639375 70.103125 -10.27875 70.20625 -10.9375 70.3125 C-11.618125 70.539375 -12.29875 70.76625 -13 71 C-13.33 71.99 -13.66 72.98 -14 74 C-13.67 74.33 -13.34 74.66 -13 75 C-13 75.66 -13 76.32 -13 77 C-13.66 77 -14.32 77 -15 77 C-15.66 78.65 -16.32 80.3 -17 82 C-17.66 81.67 -18.32 81.34 -19 81 C-19.3244953 74.66152523 -18.28015155 69.8900541 -16.1875 63.9375 C-13.42395282 55.69316127 -11.46053521 47.57103557 -10 39 C-9.67 39 -9.34 39 -9 39 C-8.67 41.64 -8.34 44.28 -8 47 C-4.90865574 46.27007682 -4.90865574 46.27007682 -3.328125 43.921875 C-1.68207667 40.30056867 -1.62998253 37.14306657 -1.75 33.25 C-1.75515625 32.56550781 -1.7603125 31.88101563 -1.765625 31.17578125 C-1.54384891 27.80087449 -1.54384891 27.80087449 -3 25 C-3.07258946 22.81360547 -3.08373783 20.62499611 -3.0625 18.4375 C-3.04896484 16.64119141 -3.04896484 16.64119141 -3.03515625 14.80859375 C-3.02355469 13.88175781 -3.01195312 12.95492187 -3 12 C-2.01 11.67 -1.02 11.34 0 11 C0 7.37 0 3.74 0 0 Z " fill="#D1A90E" transform="translate(308,135)"/>
<path d="M0 0 C15.61149044 -0.07001522 31.22293866 -0.12295133 46.83454704 -0.15543652 C54.08294796 -0.17091944 61.33125145 -0.192036 68.57958984 -0.22631836 C74.89568334 -0.25617731 81.21170628 -0.27556463 87.52786839 -0.28226548 C90.87367744 -0.28618375 94.21928465 -0.29542132 97.56502914 -0.31719017 C101.29591804 -0.33883598 105.02638306 -0.34197228 108.75732422 -0.34057617 C109.87222229 -0.351362 110.98712036 -0.36214783 112.13580322 -0.3732605 C113.14825104 -0.36913651 114.16069885 -0.36501251 115.2038269 -0.36076355 C116.08690458 -0.36352893 116.96998226 -0.36629431 117.87981987 -0.36914349 C118.57947931 -0.24732614 119.27913876 -0.12550879 120 0 C120.99 1.485 120.99 1.485 122 3 C124.05925139 3.72382467 124.05925139 3.72382467 126 4 C126.0232986 17.75330399 126.04100359 31.50660318 126.05181217 45.25992298 C126.057003 51.6479799 126.06403057 58.03602319 126.07543945 64.42407227 C126.0864047 70.60327473 126.09230536 76.78246419 126.09487724 82.96167564 C126.09670716 85.30444226 126.10027974 87.64720826 126.10573006 89.98996925 C126.13631363 103.69673804 125.90334926 117.32095811 125 131 C124.67 131 124.34 131 124 131 C123.05856169 117.9275233 122.9183439 104.93707164 123.04709625 91.83467865 C123.08985073 87.21829881 123.11275283 82.60187808 123.13712692 77.98537064 C123.18258107 69.43163941 123.23647677 60.87813727 123.32226562 52.32470703 C123.38161022 46.33228905 123.41660367 40.34015739 123.43544769 34.34748077 C123.44717526 32.07484737 123.467965 29.80224159 123.49808502 27.52977753 C123.53905637 24.36422019 123.54897318 21.19996846 123.55175781 18.03417969 C123.57130524 17.10220261 123.59085266 16.17022552 123.61099243 15.21000671 C123.58561728 11.16299912 123.40092612 7.85563909 121.13088989 4.41444397 C116.59399429 0.91573255 112.93921037 1.20660768 107.35400391 1.3347168 C106.28187149 1.33544693 105.20973907 1.33617706 104.1051178 1.33692932 C100.56150138 1.34620568 97.01979639 1.39776436 93.4765625 1.44921875 C91.01184451 1.46295473 88.54710942 1.47388646 86.08236694 1.48213196 C79.59095815 1.51071101 73.10036968 1.5744166 66.60931396 1.64630127 C58.73322369 1.72774187 50.85685589 1.77157453 42.98048973 1.81721973 C36.84965188 1.85293972 30.71914646 1.89549886 24.58853149 1.95939636 C22.89353264 1.97432129 22.89353264 1.97432129 21.16429138 1.98954773 C19.06268767 2.00809288 16.96111299 2.03053858 14.85960388 2.05776978 C9.78417024 2.09731818 5.00074652 1.88511399 0 1 C0 0.67 0 0.34 0 0 Z " fill="#403BCA" transform="translate(184,0)"/>
<path d="M0 0 C0.33 0 0.66 0 1 0 C2.02363393 26.48513035 2.1257179 52.94381192 2.06866455 79.44586182 C2.05822225 84.83109123 2.05382335 90.21632577 2.04882812 95.6015625 C2.03827329 106.06772122 2.02132986 116.53385805 2 127 C1.01 127 0.02 127 -1 127 C-1.02334889 113.83731433 -1.04102849 100.67463372 -1.05181217 87.51193142 C-1.0569923 81.3975138 -1.06399948 75.28311053 -1.07543945 69.16870117 C-1.08644393 63.24883448 -1.09231332 57.32898144 -1.09487724 51.4091053 C-1.09670031 49.17012378 -1.10025867 46.93114286 -1.10573006 44.69216728 C-1.14069413 29.76700124 -0.78450244 14.90524801 0 0 Z " fill="#5A47A7" transform="translate(308,176)"/>
<path d="M0 0 C1.93746094 -0.00773437 1.93746094 -0.00773437 3.9140625 -0.015625 C7.375 0.25 7.375 0.25 9.15185547 1.25878906 C12.30062133 2.66269741 14.97081519 2.43865191 18.40625 2.375 C19.07918091 2.36742676 19.75211182 2.35985352 20.44543457 2.35205078 C22.58888787 2.32769195 24.73179357 2.29044694 26.875 2.25 C29.6979032 2.19672571 32.52053192 2.15677282 35.34375 2.125 C36.59607422 2.10179687 37.84839844 2.07859375 39.13867188 2.0546875 C42.19531482 2.23915599 43.82672954 2.62982304 46.375 4.25 C46.375 4.58 46.375 4.91 46.375 5.25 C33.175 5.25 19.975 5.25 6.375 5.25 C6.375 3.93 6.375 2.61 6.375 1.25 C2.085 1.25 -2.205 1.25 -6.625 1.25 C-6.625 2.57 -6.625 3.89 -6.625 5.25 C-21.475 4.755 -21.475 4.755 -36.625 4.25 C-32.95343968 2.41421984 -32.05888073 2.00629153 -28.2890625 2.125 C-27.06316406 2.14820313 -27.06316406 2.14820313 -25.8125 2.171875 C-24.11197189 2.22372037 -22.41145096 2.27580151 -20.7109375 2.328125 C-13.47778669 2.46459954 -7.23978512 -0.02901717 0 0 Z " fill="#9F844F" transform="translate(154.625,304.75)"/>
<path d="M0 0 C0.33 0 0.66 0 1 0 C1 7.26 1 14.52 1 22 C1.66 22.33 2.32 22.66 3 23 C2.83748025 23.56003345 2.6749605 24.12006691 2.50751591 24.69707108 C1.96542515 27.15688851 1.87699685 29.3291141 1.87974548 31.84686279 C1.87837082 32.81998917 1.87699615 33.79311554 1.87557983 34.79573059 C1.87917511 35.85668442 1.88277039 36.91763824 1.88647461 38.01074219 C1.88632858 39.13298691 1.88618256 40.25523163 1.8860321 41.41148376 C1.88672913 45.12330046 1.89451178 48.83506706 1.90234375 52.546875 C1.90420867 55.11948621 1.90563223 57.69209778 1.90663147 60.26470947 C1.91006035 66.34550734 1.917943 72.42628452 1.92798096 78.50707459 C1.93916216 85.43085416 1.94465761 92.35463458 1.94967639 99.27842093 C1.96012615 113.51895695 1.97771309 127.75947783 2 142 C1.34 142 0.68 142 0 142 C0 95.14 0 48.28 0 0 Z " fill="#6C4AAE" transform="translate(0,161)"/>
<path d="M0 0 C1.65 0 3.3 0 5 0 C4.67 0.99 4.34 1.98 4 3 C3.01 3 2.02 3 1 3 C1.33 48.21 1.66 93.42 2 140 C1.34 140 0.68 140 0 140 C0 93.8 0 47.6 0 0 Z " fill="#77539C" transform="translate(0,7)"/>
<path d="M0 0 C15.61149044 -0.07001522 31.22293866 -0.12295133 46.83454704 -0.15543652 C54.08294796 -0.17091944 61.33125145 -0.192036 68.57958984 -0.22631836 C74.89568334 -0.25617731 81.21170628 -0.27556463 87.52786839 -0.28226548 C90.87367744 -0.28618375 94.21928465 -0.29542132 97.56502914 -0.31719017 C101.29591804 -0.33883598 105.02638306 -0.34197228 108.75732422 -0.34057617 C109.87222229 -0.351362 110.98712036 -0.36214783 112.13580322 -0.3732605 C113.14825104 -0.36913651 114.16069885 -0.36501251 115.2038269 -0.36076355 C116.08690458 -0.36352893 116.96998226 -0.36629431 117.87981987 -0.36914349 C118.57947931 -0.24732614 119.27913876 -0.12550879 120 0 C120.99 1.485 120.99 1.485 122 3 C124.05003955 4.19232613 124.05003955 4.19232613 126 5 C125.34 5 124.68 5 124 5 C123.67 5.66 123.34 6.32 123 7 C122.39457367 6.18638 121.78914734 5.37276001 121.16537476 4.53448486 C117.90734308 1.31175759 114.83214759 1.41478979 110.41145325 1.38900757 C109.40249496 1.40855499 108.39353668 1.42810242 107.35400391 1.44824219 C105.74580528 1.44955643 105.74580528 1.44955643 104.1051178 1.45089722 C100.56173183 1.4594765 97.01967574 1.50325545 93.4765625 1.546875 C91.01184076 1.55874496 88.54710661 1.56825365 86.08236694 1.57550049 C79.59107542 1.60026103 73.10035552 1.65414814 66.60931396 1.71496582 C57.46939532 1.79533337 48.32920337 1.83637979 39.1890564 1.88165283 C34.32207704 1.90585033 29.45537027 1.94104891 24.58853149 1.98504639 C22.36061636 2.00146702 20.13270093 2.01784696 17.90478516 2.03417969 C16.89987534 2.04563019 15.89496552 2.05708069 14.85960388 2.06887817 C9.78605039 2.10058157 4.99907134 1.88305831 0 1 C0 0.67 0 0.34 0 0 Z " fill="#7E71D9" transform="translate(184,0)"/>
<path d="M0 0 C13.91650947 -0.04668124 27.83300684 -0.08183691 41.74957848 -0.10362434 C48.21100955 -0.11407912 54.67238818 -0.12826915 61.13378906 -0.15087891 C67.36478824 -0.17254697 73.59573685 -0.18455585 79.82677078 -0.18975449 C82.20871401 -0.19346112 84.59065434 -0.20069882 86.97257614 -0.21146011 C90.29867369 -0.22589478 93.62455997 -0.22798131 96.95068359 -0.22705078 C98.4406913 -0.23783661 98.4406913 -0.23783661 99.96080017 -0.24884033 C100.86386398 -0.246091 101.7669278 -0.24334167 102.69735718 -0.24050903 C103.87817399 -0.24327441 103.87817399 -0.24327441 105.08284569 -0.24609566 C107 -0 107 -0 109 2 C107.69565506 1.99777939 106.39131012 1.99555878 105.04743958 1.99327087 C92.76101652 1.97300767 80.47459686 1.95801249 68.1881609 1.94818783 C61.87144589 1.94296711 55.55474436 1.9358841 49.23803711 1.92456055 C43.14318903 1.91370296 37.04835393 1.90771705 30.95349693 1.90512276 C28.62706994 1.9032737 26.30064366 1.89966303 23.97422218 1.89426994 C20.71823206 1.88702148 17.4622957 1.88601068 14.20629883 1.88647461 C13.24244766 1.88287933 12.2785965 1.87928406 11.28553772 1.87557983 C10.39517822 1.8769545 9.50481873 1.87832916 8.58747864 1.87974548 C7.8177815 1.87882369 7.04808435 1.8779019 6.25506306 1.87695217 C3.7630472 2.01292936 1.43345097 2.45852559 -1 3 C-0.67 2.01 -0.34 1.02 0 0 Z " fill="#7D77D2" transform="translate(12,0)"/>
<path d="M0 0 C9.57 0 19.14 0 29 0 C29 0.66 29 1.32 29 2 C31.1462026 1.85970581 33.29196218 1.71261836 35.4375 1.5625 C37.22994141 1.44068359 37.22994141 1.44068359 39.05859375 1.31640625 C41.88570244 1.32343886 41.88570244 1.32343886 43 0 C44.63472882 -0.08700342 46.27314055 -0.10701063 47.91015625 -0.09765625 C49.39418945 -0.09282227 49.39418945 -0.09282227 50.90820312 -0.08789062 C51.94912109 -0.07951172 52.99003906 -0.07113281 54.0625 -0.0625 C55.62967773 -0.05573242 55.62967773 -0.05573242 57.22851562 -0.04882812 C59.8190666 -0.03699913 62.40950559 -0.02051689 65 0 C65 0.33 65 0.66 65 1 C64.37432129 1.01981934 63.74864258 1.03963867 63.10400391 1.06005859 C60.27723481 1.15514226 57.45122185 1.26488746 54.625 1.375 C53.64015625 1.4059375 52.6553125 1.436875 51.640625 1.46875 C50.69960937 1.50742187 49.75859375 1.54609375 48.7890625 1.5859375 C47.48509521 1.63306885 47.48509521 1.63306885 46.15478516 1.68115234 C43.79038206 1.81229433 43.79038206 1.81229433 42 4 C31.20626601 5.06493362 19.80561222 3.60330437 9 3 C9 2.34 9 1.68 9 1 C6.03 1 3.06 1 0 1 C0 0.67 0 0.34 0 0 Z " fill="#B69127" transform="translate(119,0)"/>
<path d="M0 0 C0.66 0 1.32 0 2 0 C1.855625 0.556875 1.71125 1.11375 1.5625 1.6875 C0.97338812 4.10940438 0.48882408 6.55587958 0 9 C-33.165 8.505 -33.165 8.505 -67 8 C-67 7.67 -67 7.34 -67 7 C-21.39744028 5.80611597 -21.39744028 5.80611597 -3 6 C-2.5359375 4.7934375 -2.5359375 4.7934375 -2.0625 3.5625 C-1 1 -1 1 0 0 Z " fill="#6D73A3" transform="translate(305,301)"/>
<path d="M0 0 C2.02532475 1.65501785 2.92157617 2.52687868 3.35644531 5.15039062 C3.34709961 5.97732422 3.33775391 6.80425781 3.328125 7.65625 C3.32361328 8.58816162 3.31910156 9.52007324 3.31445312 10.48022461 C3.28254883 11.97501343 3.28254883 11.97501343 3.25 13.5 C3.23904297 14.51779541 3.22808594 15.53559082 3.21679688 16.58422852 C3.08102494 26.0698168 2.61849409 35.53483152 2 45 C1.67 45 1.34 45 1 45 C-0.09819822 29.99782788 -0.10881621 15.03672639 0 0 Z " fill="#916595" transform="translate(307,86)"/>
<path d="M0 0 C0.99 0.99 1.98 1.98 3 3 C2.34 3.66 1.68 4.32 1 5 C0.855625 5.825 0.71125 6.65 0.5625 7.5 C0 10 0 10 -3 12 C-3 12.99 -3 13.98 -3 15 C-3.99 15 -4.98 15 -6 15 C-6.66 15.99 -7.32 16.98 -8 18 C-9.45606519 13.47907032 -8.27032841 10.48351204 -7 6 C-6.34 6 -5.68 6 -5 6 C-4.9175 5.38125 -4.835 4.7625 -4.75 4.125 C-4 2 -4 2 -1.9375 0.75 C-1.298125 0.5025 -0.65875 0.255 0 0 Z " fill="#D5AA02" transform="translate(22,83)"/>
<path d="M0 0 C0 0.66 0 1.32 0 2 C-2.96178773 3.67110042 -5.37071192 4.32682752 -8.75 4.625 C-9.54921875 4.69976563 -10.3484375 4.77453125 -11.171875 4.8515625 C-12.07679687 4.92503906 -12.07679687 4.92503906 -13 5 C-12.67 5.99 -12.34 6.98 -12 8 C-15.72009942 8.93002486 -19.17104539 9.02681525 -22.99609375 8.96875 C-25.72498356 9.01130579 -28.32886896 9.46577379 -31 10 C-28.92718433 7.92718433 -27.89375156 7.46344693 -25.18359375 6.5625 C-24.03600586 6.17964844 -24.03600586 6.17964844 -22.86523438 5.7890625 C-22.06408203 5.52867187 -21.26292969 5.26828125 -20.4375 5 C-19.66341797 4.73960937 -18.88933594 4.47921875 -18.09179688 4.2109375 C-5.32074653 0 -5.32074653 0 0 0 Z " fill="#CFAB18" transform="translate(128,1)"/>
<path d="M0 0 C-0.33 0.99 -0.66 1.98 -1 3 C-23.60389809 3.34306085 -23.60389809 3.34306085 -34 1 C-34 0.67 -34 0.34 -34 0 C-30.39642975 -0.20032453 -26.79215399 -0.38282186 -23.1875 -0.5625 C-22.18267578 -0.61857422 -21.17785156 -0.67464844 -20.14257812 -0.73242188 C-13.33003056 -1.06100134 -6.77278956 -0.80176585 0 0 Z " fill="#968DA8" transform="translate(122,307)"/>
<path d="M0 0 C1.31484375 -0.01675781 2.6296875 -0.03351563 3.984375 -0.05078125 C5.06203125 0.06910156 6.1396875 0.18898438 7.25 0.3125 C7.91 1.3025 8.57 2.2925 9.25 3.3125 C8.26 3.3125 7.27 3.3125 6.25 3.3125 C6.25 2.6525 6.25 1.9925 6.25 1.3125 C1.96 1.3125 -2.33 1.3125 -6.75 1.3125 C-6.75 2.6325 -6.75 3.9525 -6.75 5.3125 C-21.6 4.8175 -21.6 4.8175 -36.75 4.3125 C-33.07843968 2.47671984 -32.18388073 2.06879153 -28.4140625 2.1875 C-27.18816406 2.21070313 -27.18816406 2.21070313 -25.9375 2.234375 C-24.23697189 2.28622037 -22.53645096 2.33830151 -20.8359375 2.390625 C-13.56320825 2.52784631 -7.28043188 0.02158231 0 0 Z " fill="#9D7F3B" transform="translate(154.75,304.6875)"/>
<path d="M0 0 C0.66 0 1.32 0 2 0 C2 0.99 2 1.98 2 3 C2.66 3 3.32 3 4 3 C4.33 4.98 4.66 6.96 5 9 C5.99 8.67 6.98 8.34 8 8 C10.0625 8.875 10.0625 8.875 12 10 C12.66 10.33 13.32 10.66 14 11 C12.68 13.97 11.36 16.94 10 20 C7.01760545 16.43030314 5.22542199 12.50974636 3.3125 8.3125 C2.83200195 7.27899414 2.83200195 7.27899414 2.34179688 6.22460938 C0 1.14655517 0 1.14655517 0 0 Z " fill="#D1AA15" transform="translate(169,138)"/>
<path d="M0 0 C0.33 0 0.66 0 1 0 C0.99476318 0.99217529 0.98952637 1.98435059 0.98413086 3.0065918 C0.96578532 6.7508857 0.95446205 10.49517579 0.94506836 14.23950195 C0.94009472 15.84823275 0.93331343 17.45695916 0.92456055 19.06567383 C0.87314772 28.77060029 1.04834986 38.33222167 2 48 C1.67 47.34 1.34 46.68 1 46 C0.34 46 -0.32 46 -1 46 C-1.02529951 39.77035385 -1.04284549 33.54072088 -1.05493164 27.31103516 C-1.05996872 25.19058741 -1.06679859 23.07014315 -1.07543945 20.94970703 C-1.08753234 17.90656678 -1.09323447 14.86347234 -1.09765625 11.8203125 C-1.10281754 10.86818878 -1.10797882 9.91606506 -1.11329651 8.93508911 C-1.11337204 8.05432709 -1.11344757 7.17356506 -1.11352539 6.26611328 C-1.115746 5.48889923 -1.11796661 4.71168518 -1.12025452 3.91091919 C-1 2 -1 2 0 0 Z " fill="#CAA927" transform="translate(10,133)"/>
<path d="M0 0 C2.31 0 4.62 0 7 0 C7 0.66 7 1.32 7 2 C7.99 2 8.98 2 10 2 C10 2.66 10 3.32 10 4 C10.66 4.33 11.32 4.66 12 5 C9.64031256 7.09749995 8.45383006 7.96905704 5.25 8.1875 C4.5075 8.125625 3.765 8.06375 3 8 C3 7.34 3 6.68 3 6 C2.01 5.67 1.02 5.34 0 5 C0 3.35 0 1.7 0 0 Z " fill="#D5AB03" transform="translate(211,13)"/>
<path d="M0 0 C1.32 0 2.64 0 4 0 C3.96519531 1.80984375 3.96519531 1.80984375 3.9296875 3.65625 C3.91091335 5.27082709 3.89271493 6.88541094 3.875 8.5 C3.85824219 9.29148438 3.84148437 10.08296875 3.82421875 10.8984375 C3.77087516 17.40635521 4.93733181 22.81199544 7 29 C7.03954234 31.33299825 7.04401732 33.66708189 7 36 C2.01608539 28.52412809 1.41941445 19.62793128 0.8125 10.875 C0.73064453 9.823125 0.64878906 8.77125 0.56445312 7.6875 C0.366486 5.12557254 0.17851741 2.56334337 0 0 Z " fill="#CFA741" transform="translate(0,160)"/>
<path d="M0 0 C17.16 0 34.32 0 52 0 C52 0.33 52 0.66 52 1 C51.4097554 1.01030746 50.8195108 1.02061493 50.21138 1.03123474 C44.06309358 1.13949106 37.91494804 1.25407326 31.7668457 1.37231445 C29.4729304 1.41560199 27.17898417 1.45728142 24.88500977 1.49731445 C21.58600546 1.55516666 18.28715599 1.61881822 14.98828125 1.68359375 C13.96414627 1.70030624 12.94001129 1.71701874 11.88484192 1.73423767 C10.92422348 1.75418289 9.96360504 1.77412811 8.97387695 1.79467773 C8.13226517 1.81022202 7.29065338 1.8257663 6.42353821 1.84178162 C3.87736443 2.00800615 1.48830329 2.44625552 -1 3 C-0.67 2.01 -0.34 1.02 0 0 Z " fill="#7C6AD6" transform="translate(12,0)"/>
<path d="M0 0 C3.875 1.75 3.875 1.75 5 4 C18.365 4.495 18.365 4.495 32 5 C32 5.33 32 5.66 32 6 C22.1 6.66 12.2 7.32 2 8 C1.67 6.35 1.34 4.7 1 3 C0.67 2.01 0.34 1.02 0 0 Z " fill="#7B78AF" transform="translate(2,302)"/>
<path d="M0 0 C0.99 0 1.98 0 3 0 C3.02712153 1.916588 3.04645097 3.8332873 3.0625 5.75 C3.07410156 6.81734375 3.08570313 7.8846875 3.09765625 8.984375 C3.01355485 11.58142615 2.6213405 13.51463802 2 16 C1.93256652 18.08234592 1.91485528 20.16668557 1.9375 22.25 C1.95103516 23.86648437 1.95103516 23.86648437 1.96484375 25.515625 C1.97644531 26.33546875 1.98804688 27.1553125 2 28 C1.34 28.33 0.68 28.66 0 29 C-2.33837671 21.98486988 -0.90656783 13.90525576 -0.21875 6.6640625 C0.05455735 3.78107419 0.05455735 3.78107419 0 0 Z " fill="#CEA630" transform="translate(2,120)"/>
<path d="M0 0 C1.29608947 0.93137592 2.58671632 1.8703566 3.875 2.8125 C4.95394531 3.59560547 4.95394531 3.59560547 6.0546875 4.39453125 C8 6 8 6 10 9 C8.35 8.67 6.7 8.34 5 8 C5 8.66 5 9.32 5 10 C4.01 10 3.02 10 2 10 C2 10.99 2 11.98 2 13 C-1.16115776 11.63016497 -1.9927092 11.0109362 -4 8 C-3.195625 7.731875 -2.39125 7.46375 -1.5625 7.1875 C-0.716875 6.795625 0.12875 6.40375 1 6 C1.33 5.01 1.66 4.02 2 3 C1.01 2.67 0.02 2.34 -1 2 C-0.67 1.34 -0.34 0.68 0 0 Z " fill="#CCAA16" transform="translate(250,32)"/>
<path d="M0 0 C5.29220165 4.41016804 10.17575236 9.08623024 15 14 C16.33217037 15.33449528 17.66518765 16.66814732 19 18 C15.84689878 17.67609652 12.94668142 17.19560144 10 16 C8.375 12.8125 8.375 12.8125 7.81640625 10.9453125 C6.47485156 7.74868936 3.95918775 5.77259844 1.42578125 3.48046875 C0 2 0 2 0 0 Z " fill="#D0AC21" transform="translate(45,249)"/>
<path d="M0 0 C1.77625814 2.42197121 2.25586788 4.19929527 2.58496094 7.16113281 C1.92496094 6.83113281 1.26496094 6.50113281 0.58496094 6.16113281 C0.58496094 5.17113281 0.58496094 4.18113281 0.58496094 3.16113281 C-0.73503906 3.16113281 -2.05503906 3.16113281 -3.41503906 3.16113281 C-3.41503906 2.50113281 -3.41503906 1.84113281 -3.41503906 1.16113281 C-13.64503906 0.83113281 -23.87503906 0.50113281 -34.41503906 0.16113281 C-34.41503906 -0.16886719 -34.41503906 -0.49886719 -34.41503906 -0.83886719 C-29.93188486 -1.08107633 -25.4484951 -1.29596789 -20.96289062 -1.48583984 C-19.43779794 -1.55421948 -17.91301815 -1.63000089 -16.38867188 -1.71337891 C-14.19474314 -1.83208561 -12.00105865 -1.92395058 -9.80566406 -2.01074219 C-9.12634827 -2.05326111 -8.44703247 -2.09578003 -7.74713135 -2.1395874 C-4.37117604 -2.24672856 -2.72363909 -2.07384246 0 0 Z " fill="#CEA918" transform="translate(222.4150390625,74.8388671875)"/>
<path d="M0 0 C2.6875 -0.3125 2.6875 -0.3125 6 0 C8.875 2.5 8.875 2.5 11 5 C9.75 6.5 9.75 6.5 8 8 C6.68 8 5.36 8 4 8 C4 6.68 4 5.36 4 4 C2.68 4 1.36 4 0 4 C0 2.68 0 1.36 0 0 Z " fill="#D6AA01" transform="translate(242,32)"/>
<path d="M0 0 C1.65 0 3.3 0 5 0 C4.67 0.99 4.34 1.98 4 3 C3.01 3 2.02 3 1 3 C1 15.54 1 28.08 1 41 C0.67 41 0.34 41 0 41 C0 27.47 0 13.94 0 0 Z " fill="#724CB1" transform="translate(0,7)"/>
<path d="M0 0 C0.33 0 0.66 0 1 0 C1.33 3.96 1.66 7.92 2 12 C1.01 12 0.02 12 -1 12 C-1 15.96 -1 19.92 -1 24 C-0.01 24.33 0.98 24.66 2 25 C1.67 29.95 1.34 34.9 1 40 C0.67 40 0.34 40 0 40 C-0.04898437 39.08476562 -0.09796875 38.16953125 -0.1484375 37.2265625 C-0.22320312 36.03804687 -0.29796875 34.84953125 -0.375 33.625 C-0.44460938 32.44164062 -0.51421875 31.25828125 -0.5859375 30.0390625 C-0.70217346 26.89437681 -0.70217346 26.89437681 -3 25 C-3.1953125 21.9609375 -3.1953125 21.9609375 -3.125 18.375 C-3.10695313 17.18648437 -3.08890625 15.99796875 -3.0703125 14.7734375 C-3.04710937 13.85820312 -3.02390625 12.94296875 -3 12 C-2.01 11.67 -1.02 11.34 0 11 C0 7.37 0 3.74 0 0 Z " fill="#9D721A" transform="translate(308,135)"/>
<path d="M0 0 C12.71024409 -0.46882048 23.82951129 0.19247281 36 4 C36 4.33 36 4.66 36 5 C34.12438033 4.88467064 32.24950159 4.7572641 30.375 4.625 C29.33085937 4.55539063 28.28671875 4.48578125 27.2109375 4.4140625 C24 4 24 4 21.1875 3 C16.99063382 1.6833361 12.99879409 1.54241796 8.625 1.375 C7.79355469 1.33632813 6.96210938 1.29765625 6.10546875 1.2578125 C4.07064844 1.16425754 2.03535584 1.08107287 0 1 C0 0.67 0 0.34 0 0 Z " fill="#D2AC2E" transform="translate(163,1)"/>
<path d="M0 0 C0.33 0 0.66 0 1 0 C1 7.26 1 14.52 1 22 C1.66 22.33 2.32 22.66 3 23 C2.855625 23.515625 2.71125 24.03125 2.5625 24.5625 C1.84190099 27.68509571 1.42733561 30.82550692 1 34 C0.67 34 0.34 34 0 34 C0 22.78 0 11.56 0 0 Z " fill="#975D90" transform="translate(0,161)"/>
<path d="M0 0 C0.66 0.33 1.32 0.66 2 1 C2.4140625 3.28515625 2.4140625 3.28515625 2.625 6.0625 C2.69976563 6.98160156 2.77453125 7.90070313 2.8515625 8.84765625 C2.90054687 9.55792969 2.94953125 10.26820313 3 11 C2.67 10.01 2.34 9.02 2 8 C0.35 8.33 -1.3 8.66 -3 9 C-3 9.66 -3 10.32 -3 11 C-3.66 10.67 -4.32 10.34 -5 10 C-4.39816251 7.97954558 -3.72693904 5.97888961 -3 4 C-2.34 3.67 -1.68 3.34 -1 3 C-0.67 2.01 -0.34 1.02 0 0 Z " fill="#D7AD03" transform="translate(15,198)"/>
<path d="M0 0 C0.66 0 1.32 0 2 0 C0.1668733 5.99932374 -2.07321751 11.44920563 -5 17 C-7.13181214 13.25712373 -6.95685425 11.21015871 -6 7 C-4.68 7 -3.36 7 -2 7 C-1.34 4.69 -0.68 2.38 0 0 Z " fill="#D2AC1B" transform="translate(193,121)"/>
<path d="M0 0 C0.433125 0.45375 0.86625 0.9075 1.3125 1.375 C3.10798342 3.20024334 3.10798342 3.20024334 6 5 C5.360625 5.12375 4.72125 5.2475 4.0625 5.375 C3.381875 5.58125 2.70125 5.7875 2 6 C1.67 6.66 1.34 7.32 1 8 C0.01 8 -0.98 8 -2 8 C-2 7.34 -2 6.68 -2 6 C-2.99 5.67 -3.98 5.34 -5 5 C-4 2 -4 2 -1.9375 0.8125 C-1.298125 0.544375 -0.65875 0.27625 0 0 Z " fill="#D8AF04" transform="translate(289,83)"/>
<path d="M0 0 C0.33 0 0.66 0 1 0 C1.33 10.23 1.66 20.46 2 31 C1.01 31 0.02 31 -1 31 C-0.67 20.77 -0.34 10.54 0 0 Z " fill="#544FC6" transform="translate(308,272)"/>
<path d="M0 0 C2.12161334 2.12161334 2.92986249 3.7733159 4.125 6.5 C4.47820312 7.2940625 4.83140625 8.088125 5.1953125 8.90625 C6 11 6 11 6 13 C4.35 12.67 2.7 12.34 1 12 C0.63597631 10.56496445 0.28413409 9.12683494 -0.0625 7.6875 C-0.25972656 6.88699219 -0.45695313 6.08648437 -0.66015625 5.26171875 C-1 3 -1 3 0 0 Z " fill="#CEAB17" transform="translate(251,139)"/>
<path d="M0 0 C13.365 0.495 13.365 0.495 27 1 C27 1.33 27 1.66 27 2 C20.07 2 13.14 2 6 2 C6 2.66 6 3.32 6 4 C4.02 3.34 2.04 2.68 0 2 C0 1.34 0 0.68 0 0 Z " fill="#A09DB3" transform="translate(197,306)"/>
<path d="M0 0 C0.66 0.99 1.32 1.98 2 3 C0.69144447 4.83615081 -0.62194462 6.66885789 -1.9375 8.5 C-2.66839844 9.5209375 -3.39929687 10.541875 -4.15234375 11.59375 C-4.76207031 12.3878125 -5.37179688 13.181875 -6 14 C-6.33 14 -6.66 14 -7 14 C-7 12.02 -7 10.04 -7 8 C-5.68 7.67 -4.36 7.34 -3 7 C-3 5.68 -3 4.36 -3 3 C-2.34 3 -1.68 3 -1 3 C-0.67 2.01 -0.34 1.02 0 0 Z " fill="#D0A919" transform="translate(38,63)"/>
<path d="M0 0 C2.6189665 2.6189665 3.75694675 5.64745639 5.1875 9 C5.47302734 9.64195313 5.75855469 10.28390625 6.05273438 10.9453125 C6.76587917 12.60411159 7.38980963 14.30063023 8 16 C7.67 16.66 7.34 17.32 7 18 C6.67 17.01 6.34 16.02 6 15 C5.34 14.67 4.68 14.34 4 14 C4 12.68 4 11.36 4 10 C3.34 10 2.68 10 2 10 C2 8.68 2 7.36 2 6 C1.01 5.67 0.02 5.34 -1 5 C-0.67 3.35 -0.34 1.7 0 0 Z " fill="#CBAA1F" transform="translate(227,86)"/>
<path d="M0 0 C0.66 0.33 1.32 0.66 2 1 C1.67 1.99 1.34 2.98 1 4 C-0.9812585 4.72045764 -2.98504093 5.38001259 -5 6 C-8.12923335 7.67377598 -10.61711996 9.36629048 -13 12 C-13.66 11.34 -14.32 10.68 -15 10 C-10.05 6.7 -5.1 3.4 0 0 Z " fill="#CBA81E" transform="translate(78,19)"/>
<path d="M0 0 C0.33 0.99 0.66 1.98 1 3 C1.66 3.33 2.32 3.66 3 4 C1.625 6.5 1.625 6.5 0 9 C-0.66 9 -1.32 9 -2 9 C-2 8.34 -2 7.68 -2 7 C-2.66 7 -3.32 7 -4 7 C-3.67 5.68 -3.34 4.36 -3 3 C-2.34 3 -1.68 3 -1 3 C-0.67 2.01 -0.34 1.02 0 0 Z " fill="#D4AD02" transform="translate(229,18)"/>
<path d="M0 0 C4.455 0.99 4.455 0.99 9 2 C6.30468655 3.34765673 3.72575128 4.58616761 0.9375 5.6875 C0.26589844 5.95949219 -0.40570313 6.23148438 -1.09765625 6.51171875 C-3 7 -3 7 -6 6 C-2.375 3 -2.375 3 1 3 C0.67 2.01 0.34 1.02 0 0 Z " fill="#CCA71B" transform="translate(105,12)"/>
<path d="M0 0 C8.57142857 -0.28571429 8.57142857 -0.28571429 12 2 C12 2.33 12 2.66 12 3 C8.37 3 4.74 3 1 3 C0.67 2.01 0.34 1.02 0 0 Z " fill="#8A8183" transform="translate(189,307)"/>
<path d="M0 0 C0.33 0 0.66 0 1 0 C1.48828125 1.98567708 1.9765625 3.97135417 2.46484375 5.95703125 C2.91010705 7.65683202 3.44433985 9.33301954 4 11 C4.03954234 13.33299825 4.04401732 15.66708189 4 18 C2.17124596 15.25686894 1.27962972 13.22925051 0.3125 10.125 C-0.09548828 8.86042969 -0.09548828 8.86042969 -0.51171875 7.5703125 C-1.05258938 4.72316953 -0.7420711 2.77903135 0 0 Z " fill="#CCB12E" transform="translate(3,178)"/>
<path d="M0 0 C0 0.66 0 1.32 0 2 C-2.96178773 3.67110042 -5.37071192 4.32682752 -8.75 4.625 C-9.54921875 4.69976563 -10.3484375 4.77453125 -11.171875 4.8515625 C-12.07679687 4.92503906 -12.07679687 4.92503906 -13 5 C-13 4.34 -13 3.68 -13 3 C-11.2092015 2.49689942 -9.41733089 1.99761372 -7.625 1.5 C-6.62726563 1.2215625 -5.62953125 0.943125 -4.6015625 0.65625 C-2 0 -2 0 0 0 Z " fill="#D7BB1E" transform="translate(128,1)"/>
<path d="M0 0 C1.32 0.99 2.64 1.98 4 3 C-0.95 5.97 -0.95 5.97 -6 9 C-4 5 -4 5 -2 4 C-2 3.01 -2 2.02 -2 1 C-1.34 0.67 -0.68 0.34 0 0 Z " fill="#CDA717" transform="translate(237,279)"/>
<path d="M0 0 C-0.33 2.31 -0.66 4.62 -1 7 C-1.99 7.33 -2.98 7.66 -4 8 C-4 6.35 -4 4.7 -4 3 C-4.66 3 -5.32 3 -6 3 C-6 2.34 -6 1.68 -6 1 C-3 0 -3 0 0 0 Z " fill="#D7AB03" transform="translate(29,229)"/>
<path d="M0 0 C0.33 0.66 0.66 1.32 1 2 C1.66 2 2.32 2 3 2 C3.33 2.66 3.66 3.32 4 4 C4.99 4.33 5.98 4.66 7 5 C7 6.65 7 8.3 7 10 C6.34 10 5.68 10 5 10 C1.98295115 6.8000997 0.50109958 4.38462134 0 0 Z " fill="#CFAA18" transform="translate(162,220)"/>
<path d="M0 0 C3 1 3 1 6 3 C4.37750059 3.83819158 2.75191503 4.6704116 1.125 5.5 C-0.23238281 6.19609375 -0.23238281 6.19609375 -1.6171875 6.90625 C-4 8 -4 8 -6 8 C-6 7.34 -6 6.68 -6 6 C-5.01 6 -4.02 6 -3 6 C-3 5.34 -3 4.68 -3 4 C-2.01 4 -1.02 4 0 4 C0 2.68 0 1.36 0 0 Z " fill="#CBA81E" transform="translate(87,20)"/>
<path d="M0 0 C0.99 0 1.98 0 3 0 C2.34 4.95 1.68 9.9 1 15 C0.67 15 0.34 15 0 15 C0 10 0 5 0 0 Z " fill="#D8B261" transform="translate(2,120)"/>
<path d="M0 0 C5.61 0.33 11.22 0.66 17 1 C17 1.33 17 1.66 17 2 C12.9472484 2.98248524 9.16138263 3.08159574 5 3 C5 2.67 5 2.34 5 2 C3.35 1.67 1.7 1.34 0 1 C0 0.67 0 0.34 0 0 Z " fill="#D2A727" transform="translate(129,305)"/>
<path d="M0 0 C2.12161334 2.12161334 2.92986249 3.7733159 4.125 6.5 C4.47820312 7.2940625 4.83140625 8.088125 5.1953125 8.90625 C6 11 6 11 6 13 C5.01 13 4.02 13 3 13 C2.67 10.69 2.34 8.38 2 6 C1.34 6 0.68 6 0 6 C0 4.02 0 2.04 0 0 Z " fill="#CDAD1D" transform="translate(265,170)"/>
<path d="M0 0 C1.62418745 -0.08090971 3.24951745 -0.13914995 4.875 -0.1875 C5.77992188 -0.22230469 6.68484375 -0.25710937 7.6171875 -0.29296875 C8.79667969 -0.14794922 8.79667969 -0.14794922 10 0 C10.66 0.99 11.32 1.98 12 3 C14.05003955 4.19232613 14.05003955 4.19232613 16 5 C15.34 5 14.68 5 14 5 C13.67 5.66 13.34 6.32 13 7 C12.34 6.195625 11.68 5.39125 11 4.5625 C7.12020772 1.24851076 4.99985175 1.25422975 0 1 C0 0.67 0 0.34 0 0 Z " fill="#7772B3" transform="translate(294,0)"/>
<path d="M0 0 C1.98 0 3.96 0 6 0 C6.33 1.32 6.66 2.64 7 4 C7.66 3.67 8.32 3.34 9 3 C8.67 4.32 8.34 5.64 8 7 C6.0625 6.1875 6.0625 6.1875 4 5 C3.67 4.01 3.34 3.02 3 2 C2.01 1.67 1.02 1.34 0 1 C0 0.67 0 0.34 0 0 Z " fill="#C8A41E" transform="translate(43,260)"/>
<path d="M0 0 C0.66 0.33 1.32 0.66 2 1 C2 2.32 2 3.64 2 5 C1.34 5 0.68 5 0 5 C-0.103125 5.78375 -0.20625 6.5675 -0.3125 7.375 C-1 10 -1 10 -4 12 C-2.66666667 8 -1.33333333 4 0 0 Z " fill="#D1AA13" transform="translate(76,95)"/>
<path d="M0 0 C0.66 0 1.32 0 2 0 C1.67 6.6 1.34 13.2 1 20 C0.67 20 0.34 20 0 20 C-0.19421438 17.04196565 -0.38066186 14.08379837 -0.5625 11.125 C-0.61857422 10.28324219 -0.67464844 9.44148437 -0.73242188 8.57421875 C-0.78076172 7.76855469 -0.82910156 6.96289062 -0.87890625 6.1328125 C-0.9260376 5.38918457 -0.97316895 4.64555664 -1.02172852 3.87939453 C-1 2 -1 2 0 0 Z " fill="#534AC9" transform="translate(308,5)"/>
<path d="M0 0 C1.65 0 3.3 0 5 0 C4.67 0.99 4.34 1.98 4 3 C3.01 3 2.02 3 1 3 C1 5.97 1 8.94 1 12 C0.67 12 0.34 12 0 12 C0 8.04 0 4.08 0 0 Z " fill="#AA90C7" transform="translate(0,7)"/>
<path d="M0 0 C1.32 0.33 2.64 0.66 4 1 C0.535 3.97 0.535 3.97 -3 7 C-3.33 5.68 -3.66 4.36 -4 3 C-2.68 2.67 -1.36 2.34 0 2 C0 1.34 0 0.68 0 0 Z " fill="#CBA822" transform="translate(269,253)"/>
<path d="M0 0 C0.66 0.33 1.32 0.66 2 1 C0.68 3.97 -0.64 6.94 -2 10 C-2.99 8.68 -3.98 7.36 -5 6 C-4.67 5.34 -4.34 4.68 -4 4 C-3.01 4.33 -2.02 4.66 -1 5 C-0.67 3.35 -0.34 1.7 0 0 Z " fill="#CFAE24" transform="translate(181,148)"/>
<path d="M0 0 C0.33 0 0.66 0 1 0 C0.64989059 8.35010941 0.64989059 8.35010941 -2.0625 11.0625 C-2.701875 11.371875 -3.34125 11.68125 -4 12 C-2.66666667 8 -1.33333333 4 0 0 Z " fill="#CDA916" transform="translate(60,132)"/>
<path d="M0 0 C1.04449911 3.13349732 0.93423645 3.98968256 0 7 C-0.66 7 -1.32 7 -2 7 C-2.33 8.98 -2.66 10.96 -3 13 C-3.66 13 -4.32 13 -5 13 C-4.54554036 11.58208592 -4.08625056 10.16571954 -3.625 8.75 C-3.24214844 7.56664063 -3.24214844 7.56664063 -2.8515625 6.359375 C-2.04826333 4.13372042 -1.10288338 2.09068328 0 0 Z " fill="#CBAA19" transform="translate(66,119)"/>
<path d="M0 0 C2.64465038 3.1254959 3.84414715 6.08788267 5 10 C3.68 9.67 2.36 9.34 1 9 C0.67 6.03 0.34 3.06 0 0 Z " fill="#D0AC1D" transform="translate(139,107)"/>
<path d="M0 0 C3.48331435 3.01887244 4.79157144 5.56909529 6 10 C4.68 9.67 3.36 9.34 2 9 C1.34 6.03 0.68 3.06 0 0 Z " fill="#CFAA23" transform="translate(284,70)"/>
<path d="M0 0 C0.66 0 1.32 0 2 0 C2.66 0.99 3.32 1.98 4 3 C6.05003955 4.19232613 6.05003955 4.19232613 8 5 C7.01 5.495 7.01 5.495 6 6 C6.33 7.32 6.66 8.64 7 10 C3.66442368 7.0094833 1.84916079 4.06815373 0 0 Z " fill="#CFAA1F" transform="translate(271,66)"/>
<path d="M0 0 C4.29 0 8.58 0 13 0 C13 0.33 13 0.66 13 1 C12.11248047 1.09087891 12.11248047 1.09087891 11.20703125 1.18359375 C7.09021792 1.62012371 3.04455467 2.08671346 -1 3 C-0.67 2.01 -0.34 1.02 0 0 Z " fill="#AE85C4" transform="translate(12,0)"/>
<path d="M0 0 C1.57554035 2.88628401 2.46276373 5.53342384 3.125 8.75 C3.29257812 9.54921875 3.46015625 10.3484375 3.6328125 11.171875 C3.81457031 12.07679688 3.81457031 12.07679688 4 13 C2 11.5625 2 11.5625 0 9 C-0.35442445 5.97175582 -0.23347235 3.03514061 0 0 Z " fill="#CCA722" transform="translate(13,186)"/>
<path d="M0 0 C0.33 0.66 0.66 1.32 1 2 C0.01 2 -0.98 2 -2 2 C-1.34 3.65 -0.68 5.3 0 7 C-0.99 7 -1.98 7 -3 7 C-5 4 -5 4 -5 1 C-3.35 0.67 -1.7 0.34 0 0 Z " fill="#D8AA04" transform="translate(51,44)"/>
<path d="M0 0 C0.33 0.66 0.66 1.32 1 2 C-2.79692186 4.82561627 -5.18569279 6.56638908 -10 6 C-6.87567603 3.47650757 -3.61939504 1.72743854 0 0 Z " fill="#D0A71C" transform="translate(223,281)"/>
<path d="M0 0 C1.98 0 3.96 0 6 0 C4.71937515 1.7074998 3.38232443 3.37373596 2 5 C1.34 5 0.68 5 0 5 C0 3.35 0 1.7 0 0 Z " fill="#D3AC14" transform="translate(59,39)"/>
<path d="M0 0 C2.50298434 2.93828597 3.46930939 5.17902761 4 9 C2.35 7.68 0.7 6.36 -1 5 C-0.67 3.35 -0.34 1.7 0 0 Z " fill="#CFAC19" transform="translate(235,104)"/>
<path d="M0 0 C1.32 1.32 2.64 2.64 4 4 C1 6 1 6 -2 6 C-2.33 5.34 -2.66 4.68 -3 4 C-2.34 3.34 -1.68 2.68 -1 2 C-0.67 2 -0.34 2 0 2 C0 1.34 0 0.68 0 0 Z " fill="#CFA915" transform="translate(260,41)"/>
<path d="M0 0 C0.93423645 3.01031744 1.04449911 3.86650268 0 7 C-1.65 6.67 -3.3 6.34 -5 6 C-3.35 4.02 -1.7 2.04 0 0 Z " fill="#CBAA1D" transform="translate(55,35)"/>
<path d="M0 0 C0.33 0.66 0.66 1.32 1 2 C0.06421005 4.35981813 -0.93347808 6.69631264 -2 9 C-2.66 8.01 -3.32 7.02 -4 6 C-3.25 3.375 -3.25 3.375 -2 1 C-1.34 0.67 -0.68 0.34 0 0 Z " fill="#CBAB1A" transform="translate(78,169)"/>
<path d="M0 0 C2.15377564 2.62198774 3.40072174 4.64404172 4 8 C3.34 8 2.68 8 2 8 C0.3125 6.25 0.3125 6.25 -1 4 C-0.6875 1.75 -0.6875 1.75 0 0 Z " fill="#D0AA19" transform="translate(125,78)"/>
<path d="" fill="#FFFF00" transform="translate(0,0)"/>
</svg>
