<svg width="1440" height="425" viewBox="0 0 1440 425" fill="none" xmlns="http://www.w3.org/2000/svg">
<path d="M1436.5 69.5715C831.5 -56.4294 270.833 17.0715 -6 69.5715V420.071H1436.5C1640.5 312.405 1931.43 172.649 1436.5 69.5715Z" fill="#401D87"/>
<g style="mix-blend-mode:hard-light" opacity="0.4">
<circle cx="591.283" cy="173.536" r="73.571" transform="rotate(-122.084 591.283 173.536)" fill="url(#paint0_linear_138_294)"/>
</g>
<g style="mix-blend-mode:hard-light" opacity="0.4">
<circle cx="88.2833" cy="131.536" r="73.571" transform="rotate(-21.6672 88.2833 131.536)" fill="url(#paint1_linear_138_294)"/>
</g>
<g style="mix-blend-mode:hard-light" opacity="0.2">
<circle cx="176.983" cy="301.236" r="57.0232" transform="rotate(-71.3947 176.983 301.236)" fill="url(#paint2_linear_138_294)"/>
</g>
<g style="mix-blend-mode:hard-light" opacity="0.4">
<circle cx="98.0056" cy="98.0056" r="98.0056" transform="matrix(-0.929344 -0.369214 -0.369214 0.929344 1556.85 242.772)" fill="url(#paint3_linear_138_294)"/>
</g>
<g style="mix-blend-mode:hard-light" opacity="0.4">
<circle cx="1232.13" cy="148.545" r="15.2565" transform="rotate(-37.2222 1232.13 148.545)" fill="url(#paint4_linear_138_294)"/>
</g>
<g style="mix-blend-mode:hard-light" opacity="0.4">
<circle cx="1146.58" cy="81.1664" r="14.1539" transform="rotate(-37.2222 1146.58 81.1664)" fill="url(#paint5_linear_138_294)"/>
</g>
<defs>
<linearGradient id="paint0_linear_138_294" x1="591.283" y1="99.9652" x2="591.283" y2="247.107" gradientUnits="userSpaceOnUse">
<stop stop-color="white" stop-opacity="0"/>
<stop offset="1" stop-color="white" stop-opacity="0.21"/>
</linearGradient>
<linearGradient id="paint1_linear_138_294" x1="88.2833" y1="57.965" x2="88.2833" y2="205.107" gradientUnits="userSpaceOnUse">
<stop stop-color="white" stop-opacity="0"/>
<stop offset="1" stop-color="white" stop-opacity="0.21"/>
</linearGradient>
<linearGradient id="paint2_linear_138_294" x1="176.983" y1="244.213" x2="176.983" y2="358.26" gradientUnits="userSpaceOnUse">
<stop stop-color="white" stop-opacity="0"/>
<stop offset="1" stop-color="white" stop-opacity="0.21"/>
</linearGradient>
<linearGradient id="paint3_linear_138_294" x1="98.0056" y1="0" x2="98.0056" y2="196.011" gradientUnits="userSpaceOnUse">
<stop stop-color="white" stop-opacity="0"/>
<stop offset="1" stop-color="white" stop-opacity="0.21"/>
</linearGradient>
<linearGradient id="paint4_linear_138_294" x1="1232.13" y1="133.289" x2="1232.13" y2="163.802" gradientUnits="userSpaceOnUse">
<stop stop-color="white" stop-opacity="0"/>
<stop offset="1" stop-color="white" stop-opacity="0.21"/>
</linearGradient>
<linearGradient id="paint5_linear_138_294" x1="1146.58" y1="67.0125" x2="1146.58" y2="95.3202" gradientUnits="userSpaceOnUse">
<stop stop-color="white" stop-opacity="0"/>
<stop offset="1" stop-color="white" stop-opacity="0.21"/>
</linearGradient>
</defs>
</svg>
