<?xml version="1.0" encoding="UTF-8"?>
<svg version="1.1" xmlns="http://www.w3.org/2000/svg" width="294" height="289">
<path d="M0 0 C13.2 0 26.4 0 40 0 C45 10 45 10 45 12 C45.66 12 46.32 12 47 12 C47.99 15.63 48.98 19.26 50 23 C50.66 23 51.32 23 52 23 C53.67862395 26.74476003 55.3407917 30.49660176 57 34.25 C57.47695312 35.31347656 57.95390625 36.37695312 58.4453125 37.47265625 C59.12207031 39.00986328 59.12207031 39.00986328 59.8125 40.578125 C60.23144531 41.52075195 60.65039062 42.46337891 61.08203125 43.43457031 C62 46 62 46 62 50 C62.66 50 63.32 50 64 50 C67.25676935 56.22896662 70.29762035 62.29997948 72.34375 69.03515625 C73.03956267 71.28004497 73.03956267 71.28004497 74.6875 74.3125 C76 77 76 77 76 81 C76.99 81 77.98 81 79 81 C83.46662007 90.49901201 87.83447938 99.97585138 91 110 C91.66 110 92.32 110 93 110 C93.17015625 110.556875 93.3403125 111.11375 93.515625 111.6875 C94.7750381 115.65331145 96.10902091 119.38235026 98.0625 123.0625 C102.7793946 132.53328445 102.7793946 132.53328445 100.88671875 138.5234375 C99.86293755 141.16220687 98.74883754 143.75485503 97.60546875 146.34375 C95.77916213 150.50293003 94.3663638 154.67318129 93 159 C92.34 159 91.68 159 91 159 C90.79503906 159.62648437 90.59007812 160.25296875 90.37890625 160.8984375 C89.97478516 162.12433594 89.97478516 162.12433594 89.5625 163.375 C89.29566406 164.18710938 89.02882812 164.99921875 88.75390625 165.8359375 C88 168 88 168 87 170 C86.34 170 85.68 170 85 170 C82.84705349 164.71169451 80.72066106 159.44876003 79 154 C78.01 154 77.02 154 76 154 C75.8040625 153.42636719 75.608125 152.85273438 75.40625 152.26171875 C72.79032637 144.83114257 69.76709793 137.60359538 66.64257812 130.37573242 C66.13114258 129.18234253 66.13114258 129.18234253 65.609375 127.96484375 C65.29967773 127.2493335 64.98998047 126.53382324 64.67089844 125.79663086 C64 124 64 124 64 122 C63.34 122 62.68 122 62 122 C61.09545484 119.73863709 60.19136901 117.47710143 59.2890625 115.21484375 C58.3324124 112.82901639 57.36852878 110.44675477 56.3984375 108.06640625 C55.98972412 107.05815796 55.98972412 107.05815796 55.57275391 106.02954102 C55.02828741 104.6864698 54.48112539 103.34448787 53.93115234 102.00366211 C52 97.22545719 52 97.22545719 52 95 C51.34 95 50.68 95 50 95 C47.84694043 91.14243493 46.60746746 88.44870215 47 84 C46.34 84 45.68 84 45 84 C35 64.9 35 64.9 35 59 C34.34 59 33.68 59 33 59 C31.66087415 55.87745057 30.32969342 52.75157642 29 49.625 C28.42765625 48.29082031 28.42765625 48.29082031 27.84375 46.9296875 C27.4828125 46.07890625 27.121875 45.228125 26.75 44.3515625 C26.24726563 43.17327881 26.24726563 43.17327881 25.734375 41.97119141 C25 40 25 40 25 38 C23.515 37.505 23.515 37.505 22 37 C17.9816159 46.31938459 17.9816159 46.31938459 15 56 C14.34 56 13.68 56 13 56 C12.5875 57.2375 12.175 58.475 11.75 59.75 C9.83333333 65.5 7.91666667 71.25 6 77 C5.34 77 4.68 77 4 77 C3.81824219 77.54527344 3.63648438 78.09054688 3.44921875 78.65234375 C0.72460938 86.82617188 0.72460938 86.82617188 -2 95 C-2.66 95 -3.32 95 -4 95 C-4.13212891 95.73065674 -4.26425781 96.46131348 -4.40039062 97.21411133 C-4.95432008 99.78776322 -5.67722684 102.11066953 -6.59375 104.57421875 C-6.90183594 105.40630859 -7.20992187 106.23839844 -7.52734375 107.09570312 C-7.84832031 107.95099609 -8.16929688 108.80628906 -8.5 109.6875 C-8.98146484 110.9878418 -8.98146484 110.9878418 -9.47265625 112.31445312 C-11.84211151 118.68422302 -11.84211151 118.68422302 -13 121 C-24.88 121 -36.76 121 -49 121 C-49 120.01 -49 119.02 -49 118 C-48.34 118 -47.68 118 -47 118 C-46.85304688 117.3915625 -46.70609375 116.783125 -46.5546875 116.15625 C-43.35368397 103.64658101 -38.4661417 91.75245823 -33.19921875 79.98828125 C-32.11880361 77.29604156 -31.45045006 74.85638333 -31 72 C-30.34 72 -29.68 72 -29 72 C-28.79503906 71.38511719 -28.59007813 70.77023438 -28.37890625 70.13671875 C-27.25260417 66.7578125 -26.12630208 63.37890625 -25 60 C-24.34 60 -23.68 60 -23 60 C-22.89042969 59.43152344 -22.78085937 58.86304688 -22.66796875 58.27734375 C-21.62061834 53.17683242 -20.20728247 48.715558 -18 44 C-17.34 44 -16.68 44 -16 44 C-15.82984375 43.23816406 -15.6596875 42.47632813 -15.484375 41.69140625 C-14.11891119 35.87365884 -12.54193454 30.55527074 -9.9765625 25.16015625 C-8.6315899 22.18507685 -7.65560243 19.12554091 -6.66015625 16.01953125 C-5.88017173 13.63342476 -4.97063599 11.31459351 -4 9 C-3.34 9 -2.68 9 -2 9 C-1.34 6.03 -0.68 3.06 0 0 Z " fill="#D4AA03" transform="translate(73,69)"/>
<path d="M0 0 C1.6874269 0.00015917 3.37485866 0.00585622 5.06225586 0.01586914 C6.39189613 0.01799156 6.39189613 0.01799156 7.74839783 0.02015686 C10.59133215 0.02577324 13.43418892 0.03832848 16.27709961 0.05102539 C18.19962452 0.05603828 20.12215065 0.06060155 22.04467773 0.06469727 C26.7680151 0.07574798 31.49129419 0.09302356 36.21459961 0.11352539 C37.02566604 1.68122173 37.83042281 3.25218331 38.63256836 4.82446289 C39.30582153 6.13616455 39.30582153 6.13616455 39.99267578 7.47436523 C41.61582929 10.98011737 42.44508126 14.33588987 43.21459961 18.11352539 C43.87459961 18.11352539 44.53459961 18.11352539 45.21459961 18.11352539 C48.08972481 24.0173019 50.05265809 29.64640352 51.21459961 36.11352539 C51.87459961 36.11352539 52.53459961 36.11352539 53.21459961 36.11352539 C55.57873294 41.18981168 57.6582656 46.23846956 59.35522461 51.57446289 C60.81155075 55.87724467 62.53702575 60.07745612 64.22631836 64.29321289 C65.21459961 67.11352539 65.21459961 67.11352539 65.21459961 70.11352539 C65.87459961 70.11352539 66.53459961 70.11352539 67.21459961 70.11352539 C70.0299278 75.15492703 71.73345051 79.33973614 72.21459961 85.11352539 C72.87459961 85.11352539 73.53459961 85.11352539 74.21459961 85.11352539 C74.8857951 86.56977989 75.55141768 88.02860406 76.21459961 89.48852539 C76.77147461 90.70668945 76.77147461 90.70668945 77.33959961 91.94946289 C78.21459961 94.11352539 78.21459961 94.11352539 78.21459961 96.11352539 C78.87459961 96.11352539 79.53459961 96.11352539 80.21459961 96.11352539 C80.80241211 97.93883789 80.80241211 97.93883789 81.40209961 99.80102539 C83.13714235 105.04786138 85.17125515 110.16464806 87.22631836 115.29321289 C88.21459961 118.11352539 88.21459961 118.11352539 88.21459961 121.11352539 C76.99459961 121.11352539 65.77459961 121.11352539 54.21459961 121.11352539 C53.88459961 119.79352539 53.55459961 118.47352539 53.21459961 117.11352539 C52.55459961 117.11352539 51.89459961 117.11352539 51.21459961 117.11352539 C50.39703723 115.05302685 49.58575227 112.99003687 48.77709961 110.92602539 C48.32463867 109.7774707 47.87217773 108.62891602 47.40600586 107.44555664 C46.4036666 104.64229306 45.69447166 102.04239963 45.21459961 99.11352539 C44.55459961 99.11352539 43.89459961 99.11352539 43.21459961 99.11352539 C42.2300089 96.71979569 41.25181258 94.32377469 40.27709961 91.92602539 C39.99930664 91.25249023 39.72151367 90.57895508 39.43530273 89.88500977 C37.98838905 86.31130729 36.80296832 82.94909355 36.21459961 79.11352539 C35.55459961 79.11352539 34.89459961 79.11352539 34.21459961 79.11352539 C33.72540039 77.82768555 33.72540039 77.82768555 33.22631836 76.51586914 C30.46550067 69.22104862 30.46550067 69.22104862 27.40209961 62.05102539 C26.21459961 59.11352539 26.21459961 59.11352539 26.21459961 55.11352539 C25.55459961 55.11352539 24.89459961 55.11352539 24.21459961 55.11352539 C23.2555041 52.88468394 22.29730124 50.65546571 21.33959961 48.42602539 C21.07018555 47.80018555 20.80077148 47.1743457 20.52319336 46.52954102 C19.04013682 43.07510445 17.59232477 39.61134218 16.21459961 36.11352539 C15.55459961 36.11352539 14.89459961 36.11352539 14.21459961 36.11352539 C13.82272461 37.33040039 13.43084961 38.54727539 13.02709961 39.80102539 C10.40303527 47.68571396 7.31230395 55.40495237 4.21459961 63.11352539 C3.55459961 63.11352539 2.89459961 63.11352539 2.21459961 63.11352539 C2.09084961 64.00040039 1.96709961 64.88727539 1.83959961 65.80102539 C1.27047225 68.81740041 0.44845525 71.31678593 -0.78540039 74.11352539 C-1.44540039 74.11352539 -2.10540039 74.11352539 -2.78540039 74.11352539 C-2.97875977 74.86118164 -3.17211914 75.60883789 -3.37133789 76.37915039 C-3.63172852 77.36399414 -3.89211914 78.34883789 -4.16040039 79.36352539 C-4.54325195 80.82532227 -4.54325195 80.82532227 -4.93383789 82.31665039 C-5.68138548 84.77189842 -6.55663856 86.86969944 -7.78540039 89.11352539 C-8.44540039 89.11352539 -9.10540039 89.11352539 -9.78540039 89.11352539 C-11.8197557 85.383874 -12.78540039 83.44447497 -12.78540039 79.11352539 C-13.44540039 79.11352539 -14.10540039 79.11352539 -14.78540039 79.11352539 C-26.70911103 53.75576744 -26.70911103 53.75576744 -25.11352539 49.19165039 C-24.75774414 48.58836914 -24.40196289 47.98508789 -24.03540039 47.36352539 C-22.46932703 44.50490518 -21.26262807 41.78686684 -20.28540039 38.67602539 C-18.80617108 33.9849888 -16.86006686 29.56826607 -14.78540039 25.11352539 C-14.12540039 25.11352539 -13.46540039 25.11352539 -12.78540039 25.11352539 C-12.72352539 24.35040039 -12.66165039 23.58727539 -12.59790039 22.80102539 C-11.63851793 18.44690498 -9.89326999 14.82805973 -7.99243164 10.81274414 C-6.56385186 7.61808838 -5.6667268 4.4919433 -4.78540039 1.11352539 C-3.78540039 0.11352539 -3.78540039 0.11352539 0 0 Z " fill="#D4AB03" transform="translate(178.785400390625,68.886474609375)"/>
<path d="M0 0 C1.98 0 3.96 0 6 0 C5.52309796 1.62566606 5.04340334 3.25051311 4.5625 4.875 C4.29566406 5.77992188 4.02882812 6.68484375 3.75390625 7.6171875 C3 10 3 10 2 12 C1.34 12 0.68 12 0 12 C-1.5625 9.1875 -1.5625 9.1875 -3 6 C-2.67 5.01 -2.34 4.02 -2 3 C-1.34 3 -0.68 3 0 3 C0 2.01 0 1.02 0 0 Z " fill="#D2AA0C" transform="translate(169,146)"/>
<path d="M0 0 C0.495 0.99 0.495 0.99 1 2 C0.34 3.32 -0.32 4.64 -1 6 C-12.88 6 -24.76 6 -37 6 C-37 5.01 -37 4.02 -37 3 C-36.34 3 -35.68 3 -35 3 C-34.67 2.34 -34.34 1.68 -34 1 C-34 2.32 -34 3.64 -34 5 C-23.44 5 -12.88 5 -2 5 C-2 3.68 -2 2.36 -2 1 C-1.34 0.67 -0.68 0.34 0 0 Z " fill="#CEAE24" transform="translate(61,184)"/>
<path d="M0 0 C0.33 0.66 0.66 1.32 1 2 C1.66 2 2.32 2 3 2 C3.99 5.63 4.98 9.26 6 13 C5.01 12.67 4.02 12.34 3 12 C3 12.99 3 13.98 3 15 C0.525 14.01 0.525 14.01 -2 13 C-1.67 11.96875 -1.34 10.9375 -1 9.875 C-0.0284808 6.51573291 0.17116771 3.50893798 0 0 Z " fill="#CFAB10" transform="translate(163,177)"/>
<path d="M0 0 C1 2 1 2 -0.21484375 5.6953125 C-0.78133585 7.17485658 -1.35591889 8.65132181 -1.9375 10.125 C-2.22818359 10.87910156 -2.51886719 11.63320312 -2.81835938 12.41015625 C-3.53874998 14.27608602 -4.26850404 16.1383958 -5 18 C-6.31037622 13.0520194 -6.63287072 9.53438847 -4 5 C-3.67 4.278125 -3.34 3.55625 -3 2.8125 C-2 1 -2 1 0 0 Z " fill="#D0A915" transform="translate(191,107)"/>
<path d="M0 0 C0.66 1.32 1.32 2.64 2 4 C2.66 4 3.32 4 4 4 C4.99 6.97 5.98 9.94 7 13 C6.01 12.01 5.02 11.02 4 10 C4 9.34 4 8.68 4 8 C2.68 8 1.36 8 0 8 C0 7.34 0 6.68 0 6 C-0.66 5.67 -1.32 5.34 -2 5 C-1.34 3.35 -0.68 1.7 0 0 Z " fill="#CFA917" transform="translate(228,101)"/>
<path d="M0 0 C0.99 0.495 0.99 0.495 2 1 C2.103125 1.61875 2.20625 2.2375 2.3125 2.875 C3.3053936 5.94394387 5.22209562 6.57543365 8 8 C7.67 8.99 7.34 9.98 7 11 C7.39397335 13.63804589 7.39397335 13.63804589 8 16 C5 12.25 5 12.25 5 10 C4.34 10 3.68 10 3 10 C2.49596232 8.70990357 1.99690074 7.41786211 1.5 6.125 C1.2215625 5.40570313 0.943125 4.68640625 0.65625 3.9453125 C0 2 0 2 0 0 Z " fill="#D0AB19" transform="translate(103,118)"/>
<path d="M0 0 C1.88671875 0.1953125 1.88671875 0.1953125 4 1 C5.08203125 3.1796875 5.08203125 3.1796875 5.8125 5.875 C6.19341797 7.20144531 6.19341797 7.20144531 6.58203125 8.5546875 C7 11 7 11 6 14 C4.99515796 12.04414675 3.99626195 10.08523763 3 8.125 C2.1646875 6.48917969 2.1646875 6.48917969 1.3125 4.8203125 C0 2 0 2 0 0 Z " fill="#CFAB1A" transform="translate(112,139)"/>
<path d="M0 0 C2.46301423 2.46301423 2.76766521 4.27360036 3.625 7.625 C3.88539063 8.62789062 4.14578125 9.63078125 4.4140625 10.6640625 C4.60742188 11.43492188 4.80078125 12.20578125 5 13 C2.525 12.01 2.525 12.01 0 11 C0 7.37 0 3.74 0 0 Z " fill="#CDAA13" transform="translate(217,74)"/>
<path d="M0 0 C1.32 0.33 2.64 0.66 4 1 C4 1.66 4 2.32 4 3 C4.66 3 5.32 3 6 3 C5.67 5.64 5.34 8.28 5 11 C0 3.5 0 3.5 0 0 Z " fill="#CDAC13" transform="translate(144,208)"/>
<path d="M0 0 C2 1 2 1 2.88671875 2.9609375 C3.15097656 3.75757813 3.41523438 4.55421875 3.6875 5.375 C3.95949219 6.16648438 4.23148438 6.95796875 4.51171875 7.7734375 C5 10 5 10 4 13 C3.32404685 11.58774074 2.65959941 10.16997095 2 8.75 C1.62875 7.96109375 1.2575 7.1721875 0.875 6.359375 C0 4 0 4 0 0 Z " fill="#CEAA14" transform="translate(128,170)"/>
<path d="M0 0 C1.1875 1.5625 1.1875 1.5625 2 4 C0.625 7.75 0.625 7.75 -1 11 C-1.33 11 -1.66 11 -2 11 C-2.05399736 9.54207116 -2.09279177 8.08357288 -2.125 6.625 C-2.15980469 5.40683594 -2.15980469 5.40683594 -2.1953125 4.1640625 C-2 2 -2 2 0 0 Z " fill="#CFAA14" transform="translate(171,206)"/>
<path d="M0 0 C0.33 0 0.66 0 1 0 C1 1.65 1 3.3 1 5 C-0.98 5.99 -0.98 5.99 -3 7 C-2.67 7.99 -2.34 8.98 -2 10 C-2.99 10.33 -3.98 10.66 -5 11 C-4.34 8.69 -3.68 6.38 -3 4 C-2.34 4 -1.68 4 -1 4 C-0.67 2.68 -0.34 1.36 0 0 Z " fill="#D0AE19" transform="translate(72,74)"/>
<path d="M0 0 C0.66 0 1.32 0 2 0 C2.33 1.32 2.66 2.64 3 4 C1.02 4.99 1.02 4.99 -1 6 C-1 6.99 -1 7.98 -1 9 C-1.66 9 -2.32 9 -3 9 C-2.01 6.03 -1.02 3.06 0 0 Z " fill="#D0AC18" transform="translate(164,94)"/>
<path d="M0 0 C1.9451 2.91765 2.45276317 4.62537285 3 8 C1.35 8.33 -0.3 8.66 -2 9 C-2 6 -2 6 0 4 C0 2.68 0 1.36 0 0 Z " fill="#D0AA11" transform="translate(132,110)"/>
<path d="M0 0 C0.66 0.99 1.32 1.98 2 3 C1.34 3 0.68 3 0 3 C0.309375 3.928125 0.309375 3.928125 0.625 4.875 C0.74875 5.57625 0.8725 6.2775 1 7 C0.34 7.66 -0.32 8.32 -1 9 C-1.66 8.67 -2.32 8.34 -3 8 C-1.125 2.25 -1.125 2.25 0 0 Z M1 4 C3 5 3 5 3 5 Z " fill="#CFA812" transform="translate(172,77)"/>
<path d="M0 0 C1.32 0.33 2.64 0.66 4 1 C4.33 3.97 4.66 6.94 5 10 C2.35534962 6.8745041 1.15585285 3.91211733 0 0 Z " fill="#CDAB1D" transform="translate(137,192)"/>
<path d="M0 0 C0.99 0.33 1.98 0.66 3 1 C2.34 1 1.68 1 1 1 C0.01 3.97 -0.98 6.94 -2 10 C-2.33 10 -2.66 10 -3 10 C-3 7.69 -3 5.38 -3 3 C-2.01 2.67 -1.02 2.34 0 2 C0 1.34 0 0.68 0 0 Z " fill="#C6AB1E" transform="translate(76,145)"/>
<path d="M0 0 C0.33 0.66 0.66 1.32 1 2 C1.66 2 2.32 2 3 2 C3.66 3.65 4.32 5.3 5 7 C3.35 7 1.7 7 0 7 C0 4.69 0 2.38 0 0 Z " fill="#D3AA14" transform="translate(122,90)"/>
<path d="M0 0 C0.66 1.32 1.32 2.64 2 4 C2.66 4 3.32 4 4 4 C3.67 5.65 3.34 7.3 3 9 C2.34 8.67 1.68 8.34 1 8 C0.40644386 5.35139573 0.25790731 2.70802678 0 0 Z " fill="#D0AA1B" transform="translate(255,161)"/>
<path d="M0 0 C0.99 0.33 1.98 0.66 3 1 C3.73046875 2.84765625 3.73046875 2.84765625 4.1875 5.0625 C4.34605469 5.79597656 4.50460938 6.52945313 4.66796875 7.28515625 C4.83232422 8.13400391 4.83232422 8.13400391 5 9 C4.34 9 3.68 9 3 9 C0 3.375 0 3.375 0 0 Z " fill="#CBAC2C" transform="translate(166,149)"/>
</svg>
